<mxfile host="65bd71144e">
    <diagram name="Page-1" id="9f46799a-70d6-7492-0946-bef42562c5a5">
        <mxGraphModel dx="1095" dy="787" grid="1" gridSize="10" guides="1" tooltips="1" connect="1" arrows="1" fold="1" page="1" pageScale="1" pageWidth="1100" pageHeight="850" background="none" math="0" shadow="0">
            <root>
                <mxCell id="0"/>
                <mxCell id="1" parent="0"/>
                <mxCell id="L1IDQ7KOCl5srtxUm-I5-19" value="KFDisturbanceObserver" style="swimlane;html=1;fontStyle=1;align=center;verticalAlign=top;childLayout=stackLayout;horizontal=1;startSize=26;horizontalStack=0;resizeParent=1;resizeLast=0;collapsible=1;marginBottom=0;swimlaneFillColor=none;rounded=0;shadow=0;comic=0;labelBackgroundColor=none;strokeWidth=1;fillColor=none;fontFamily=Verdana;fontSize=12" parent="1" vertex="1">
                    <mxGeometry width="500" height="1920" as="geometry">
                        <mxRectangle width="200" height="30" as="alternateBounds"/>
                    </mxGeometry>
                </mxCell>
                <mxCell id="L1IDQ7KOCl5srtxUm-I5-122" value="Private" style="text;html=1;strokeColor=#b85450;fillColor=#f8cecc;align=left;verticalAlign=top;spacingLeft=4;spacingRight=4;whiteSpace=wrap;overflow=hidden;rotatable=0;points=[[0,0.5],[1,0.5]];portConstraint=eastwest;" parent="L1IDQ7KOCl5srtxUm-I5-19" vertex="1">
                    <mxGeometry y="26" width="500" height="26" as="geometry"/>
                </mxCell>
                <mxCell id="L1IDQ7KOCl5srtxUm-I5-20" value="+&amp;nbsp;kStateSize&lt;span style=&quot;background-color: initial;&quot;&gt;:&amp;nbsp;&lt;/span&gt;static constexpr int" style="text;html=1;strokeColor=none;fillColor=none;align=left;verticalAlign=top;spacingLeft=4;spacingRight=4;whiteSpace=wrap;overflow=hidden;rotatable=0;points=[[0,0.5],[1,0.5]];portConstraint=eastwest;" parent="L1IDQ7KOCl5srtxUm-I5-19" vertex="1">
                    <mxGeometry y="52" width="500" height="26" as="geometry"/>
                </mxCell>
                <mxCell id="L1IDQ7KOCl5srtxUm-I5-21" value="+&amp;nbsp;kMeasurementSize&lt;span style=&quot;background-color: initial;&quot;&gt;:&amp;nbsp;&lt;/span&gt;static constexpr int" style="text;html=1;strokeColor=none;fillColor=none;align=left;verticalAlign=top;spacingLeft=4;spacingRight=4;whiteSpace=wrap;overflow=hidden;rotatable=0;points=[[0,0.5],[1,0.5]];portConstraint=eastwest;" parent="L1IDQ7KOCl5srtxUm-I5-19" vertex="1">
                    <mxGeometry y="78" width="500" height="26" as="geometry"/>
                </mxCell>
                <mxCell id="L1IDQ7KOCl5srtxUm-I5-22" value="+&amp;nbsp;kGravity&lt;span style=&quot;background-color: initial;&quot;&gt;:&amp;nbsp;&lt;/span&gt;static constexpr double" style="text;html=1;strokeColor=none;fillColor=none;align=left;verticalAlign=top;spacingLeft=4;spacingRight=4;whiteSpace=wrap;overflow=hidden;rotatable=0;points=[[0,0.5],[1,0.5]];portConstraint=eastwest;" parent="L1IDQ7KOCl5srtxUm-I5-19" vertex="1">
                    <mxGeometry y="104" width="500" height="26" as="geometry"/>
                </mxCell>
                <mxCell id="L1IDQ7KOCl5srtxUm-I5-23" value="+&amp;nbsp;nh_&lt;span style=&quot;background-color: initial;&quot;&gt;:&amp;nbsp;&lt;/span&gt;&amp;nbsp;ros::NodeHandle" style="text;html=1;strokeColor=none;fillColor=none;align=left;verticalAlign=top;spacingLeft=4;spacingRight=4;whiteSpace=wrap;overflow=hidden;rotatable=0;points=[[0,0.5],[1,0.5]];portConstraint=eastwest;" parent="L1IDQ7KOCl5srtxUm-I5-19" vertex="1">
                    <mxGeometry y="130" width="500" height="26" as="geometry"/>
                </mxCell>
                <mxCell id="L1IDQ7KOCl5srtxUm-I5-41" value="+&amp;nbsp;private_nh_&lt;span style=&quot;background-color: initial;&quot;&gt;:&amp;nbsp;&lt;/span&gt;&lt;span style=&quot;background-color: initial;&quot;&gt;&amp;nbsp;ros::NodeHandle&lt;/span&gt;" style="text;html=1;strokeColor=none;fillColor=none;align=left;verticalAlign=top;spacingLeft=4;spacingRight=4;whiteSpace=wrap;overflow=hidden;rotatable=0;points=[[0,0.5],[1,0.5]];portConstraint=eastwest;" parent="L1IDQ7KOCl5srtxUm-I5-19" vertex="1">
                    <mxGeometry y="156" width="500" height="26" as="geometry"/>
                </mxCell>
                <mxCell id="L1IDQ7KOCl5srtxUm-I5-40" value="+&amp;nbsp;observer_nh_&lt;span style=&quot;background-color: initial;&quot;&gt;:&amp;nbsp;&lt;/span&gt;&lt;span style=&quot;background-color: initial;&quot;&gt;&amp;nbsp;ros::NodeHandle&lt;/span&gt;" style="text;html=1;strokeColor=none;fillColor=none;align=left;verticalAlign=top;spacingLeft=4;spacingRight=4;whiteSpace=wrap;overflow=hidden;rotatable=0;points=[[0,0.5],[1,0.5]];portConstraint=eastwest;" parent="L1IDQ7KOCl5srtxUm-I5-19" vertex="1">
                    <mxGeometry y="182" width="500" height="26" as="geometry"/>
                </mxCell>
                <mxCell id="L1IDQ7KOCl5srtxUm-I5-42" value="+&amp;nbsp;initialized_&lt;span style=&quot;background-color: initial;&quot;&gt;:&amp;nbsp;&lt;/span&gt;&lt;span style=&quot;background-color: initial;&quot;&gt;&amp;nbsp;&lt;/span&gt;&lt;span style=&quot;background-color: initial;&quot;&gt;bool&lt;/span&gt;" style="text;html=1;strokeColor=none;fillColor=none;align=left;verticalAlign=top;spacingLeft=4;spacingRight=4;whiteSpace=wrap;overflow=hidden;rotatable=0;points=[[0,0.5],[1,0.5]];portConstraint=eastwest;" parent="L1IDQ7KOCl5srtxUm-I5-19" vertex="1">
                    <mxGeometry y="208" width="500" height="26" as="geometry"/>
                </mxCell>
                <mxCell id="L1IDQ7KOCl5srtxUm-I5-43" value="+&amp;nbsp;state_&lt;span style=&quot;background-color: initial;&quot;&gt;:&amp;nbsp;&lt;/span&gt;&lt;span style=&quot;background-color: initial;&quot;&gt;&amp;nbsp;&lt;/span&gt;&lt;span style=&quot;background-color: initial;&quot;&gt;Eigen::Matrix&amp;lt;double, kStateSize, 1&amp;gt;&lt;/span&gt;" style="text;html=1;strokeColor=none;fillColor=none;align=left;verticalAlign=top;spacingLeft=4;spacingRight=4;whiteSpace=wrap;overflow=hidden;rotatable=0;points=[[0,0.5],[1,0.5]];portConstraint=eastwest;" parent="L1IDQ7KOCl5srtxUm-I5-19" vertex="1">
                    <mxGeometry y="234" width="500" height="26" as="geometry"/>
                </mxCell>
                <mxCell id="L1IDQ7KOCl5srtxUm-I5-44" value="+&amp;nbsp;predicted_state_&lt;span style=&quot;background-color: initial;&quot;&gt;:&amp;nbsp;&lt;/span&gt;&lt;span style=&quot;background-color: initial;&quot;&gt;&amp;nbsp;&lt;/span&gt;&lt;span style=&quot;background-color: initial;&quot;&gt;Eigen::Matrix&amp;lt;double, kStateSize, 1&amp;gt;&lt;/span&gt;" style="text;html=1;strokeColor=none;fillColor=none;align=left;verticalAlign=top;spacingLeft=4;spacingRight=4;whiteSpace=wrap;overflow=hidden;rotatable=0;points=[[0,0.5],[1,0.5]];portConstraint=eastwest;" parent="L1IDQ7KOCl5srtxUm-I5-19" vertex="1">
                    <mxGeometry y="260" width="500" height="26" as="geometry"/>
                </mxCell>
                <mxCell id="L1IDQ7KOCl5srtxUm-I5-45" value="+&amp;nbsp;measurements_&lt;span style=&quot;background-color: initial;&quot;&gt;:&amp;nbsp;&lt;/span&gt;&lt;span style=&quot;background-color: initial;&quot;&gt;&amp;nbsp;&lt;/span&gt;&lt;span style=&quot;background-color: initial;&quot;&gt;Eigen::Matrix&amp;lt;double, kStateSize, 1&amp;gt;&lt;/span&gt;" style="text;html=1;strokeColor=none;fillColor=none;align=left;verticalAlign=top;spacingLeft=4;spacingRight=4;whiteSpace=wrap;overflow=hidden;rotatable=0;points=[[0,0.5],[1,0.5]];portConstraint=eastwest;" parent="L1IDQ7KOCl5srtxUm-I5-19" vertex="1">
                    <mxGeometry y="286" width="500" height="26" as="geometry"/>
                </mxCell>
                <mxCell id="L1IDQ7KOCl5srtxUm-I5-46" value="+&amp;nbsp;rotation_matrix_&lt;span style=&quot;background-color: initial;&quot;&gt;:&amp;nbsp;&lt;/span&gt;&lt;span style=&quot;background-color: initial;&quot;&gt;&amp;nbsp;&lt;/span&gt;&lt;span style=&quot;background-color: initial;&quot;&gt;Eigen::&lt;/span&gt;&lt;span style=&quot;background-color: initial;&quot;&gt;Matrix3d&lt;/span&gt;" style="text;html=1;strokeColor=none;fillColor=none;align=left;verticalAlign=top;spacingLeft=4;spacingRight=4;whiteSpace=wrap;overflow=hidden;rotatable=0;points=[[0,0.5],[1,0.5]];portConstraint=eastwest;" parent="L1IDQ7KOCl5srtxUm-I5-19" vertex="1">
                    <mxGeometry y="312" width="500" height="26" as="geometry"/>
                </mxCell>
                <mxCell id="L1IDQ7KOCl5srtxUm-I5-47" value="+&amp;nbsp;roll_pitch_yaw_thrust_cmd_&lt;span style=&quot;background-color: initial;&quot;&gt;:&amp;nbsp;&lt;/span&gt;&lt;span style=&quot;background-color: initial;&quot;&gt;&amp;nbsp;&lt;/span&gt;&lt;span style=&quot;background-color: initial;&quot;&gt;Eigen::&lt;/span&gt;&lt;span style=&quot;background-color: initial;&quot;&gt;Vector4d&lt;/span&gt;" style="text;html=1;strokeColor=none;fillColor=none;align=left;verticalAlign=top;spacingLeft=4;spacingRight=4;whiteSpace=wrap;overflow=hidden;rotatable=0;points=[[0,0.5],[1,0.5]];portConstraint=eastwest;" parent="L1IDQ7KOCl5srtxUm-I5-19" vertex="1">
                    <mxGeometry y="338" width="500" height="26" as="geometry"/>
                </mxCell>
                <mxCell id="L1IDQ7KOCl5srtxUm-I5-48" value="+&amp;nbsp;process_noise_covariance_&lt;span style=&quot;background-color: initial;&quot;&gt;:&amp;nbsp;&lt;/span&gt;&lt;span style=&quot;background-color: initial;&quot;&gt;&amp;nbsp;&lt;/span&gt;&lt;span style=&quot;background-color: initial;&quot;&gt;Eigen::Matrix&amp;lt;double, kStateSize, 1&amp;gt;&lt;/span&gt;" style="text;html=1;strokeColor=none;fillColor=none;align=left;verticalAlign=top;spacingLeft=4;spacingRight=4;whiteSpace=wrap;overflow=hidden;rotatable=0;points=[[0,0.5],[1,0.5]];portConstraint=eastwest;" parent="L1IDQ7KOCl5srtxUm-I5-19" vertex="1">
                    <mxGeometry y="364" width="500" height="26" as="geometry"/>
                </mxCell>
                <mxCell id="L1IDQ7KOCl5srtxUm-I5-49" value="+&amp;nbsp;state_covariance_&lt;span style=&quot;background-color: initial;&quot;&gt;:&amp;nbsp;&lt;/span&gt;&lt;span style=&quot;background-color: initial;&quot;&gt;&amp;nbsp;&lt;/span&gt;&lt;span style=&quot;background-color: initial;&quot;&gt;Eigen::Matrix&amp;lt;double, kStateSize, kStateSize&amp;gt;&lt;/span&gt;" style="text;html=1;strokeColor=none;fillColor=none;align=left;verticalAlign=top;spacingLeft=4;spacingRight=4;whiteSpace=wrap;overflow=hidden;rotatable=0;points=[[0,0.5],[1,0.5]];portConstraint=eastwest;" parent="L1IDQ7KOCl5srtxUm-I5-19" vertex="1">
                    <mxGeometry y="390" width="500" height="26" as="geometry"/>
                </mxCell>
                <mxCell id="L1IDQ7KOCl5srtxUm-I5-50" value="+&amp;nbsp;initial_state_covariance_&lt;span style=&quot;background-color: initial;&quot;&gt;:&amp;nbsp;&lt;/span&gt;&lt;span style=&quot;background-color: initial;&quot;&gt;&amp;nbsp;&lt;/span&gt;&lt;span style=&quot;background-color: initial;&quot;&gt;Eigen::Matrix&amp;lt;double, kStateSize, 1&amp;gt;&lt;/span&gt;" style="text;html=1;strokeColor=none;fillColor=none;align=left;verticalAlign=top;spacingLeft=4;spacingRight=4;whiteSpace=wrap;overflow=hidden;rotatable=0;points=[[0,0.5],[1,0.5]];portConstraint=eastwest;" parent="L1IDQ7KOCl5srtxUm-I5-19" vertex="1">
                    <mxGeometry y="416" width="500" height="26" as="geometry"/>
                </mxCell>
                <mxCell id="L1IDQ7KOCl5srtxUm-I5-52" value="+&amp;nbsp;measurement_covariance_&lt;span style=&quot;background-color: initial;&quot;&gt;:&amp;nbsp;&lt;/span&gt;&lt;span style=&quot;background-color: initial;&quot;&gt;&amp;nbsp;&lt;/span&gt;&lt;span style=&quot;background-color: initial;&quot;&gt;Eigen::Matrix&amp;lt;double, kMeasurementSize, 1&amp;gt;&lt;/span&gt;" style="text;html=1;strokeColor=none;fillColor=none;align=left;verticalAlign=top;spacingLeft=4;spacingRight=4;whiteSpace=wrap;overflow=hidden;rotatable=0;points=[[0,0.5],[1,0.5]];portConstraint=eastwest;" parent="L1IDQ7KOCl5srtxUm-I5-19" vertex="1">
                    <mxGeometry y="442" width="500" height="26" as="geometry"/>
                </mxCell>
                <mxCell id="L1IDQ7KOCl5srtxUm-I5-51" value="+&amp;nbsp;drag_coefficients_matrix_&lt;span style=&quot;background-color: initial;&quot;&gt;:&amp;nbsp;&lt;/span&gt;&lt;span style=&quot;background-color: initial;&quot;&gt;&amp;nbsp;&lt;/span&gt;&lt;span style=&quot;background-color: initial;&quot;&gt;Eigen::&lt;/span&gt;Matrix3d" style="text;html=1;strokeColor=none;fillColor=none;align=left;verticalAlign=top;spacingLeft=4;spacingRight=4;whiteSpace=wrap;overflow=hidden;rotatable=0;points=[[0,0.5],[1,0.5]];portConstraint=eastwest;" parent="L1IDQ7KOCl5srtxUm-I5-19" vertex="1">
                    <mxGeometry y="468" width="500" height="26" as="geometry"/>
                </mxCell>
                <mxCell id="L1IDQ7KOCl5srtxUm-I5-53" value="+&amp;nbsp;F_&lt;span style=&quot;background-color: initial;&quot;&gt;:&amp;nbsp;&lt;/span&gt;&lt;span style=&quot;background-color: initial;&quot;&gt;&amp;nbsp;&lt;/span&gt;Eigen::SparseMatrix&amp;lt;double&amp;gt; // System dynamics matrix" style="text;html=1;strokeColor=none;fillColor=none;align=left;verticalAlign=top;spacingLeft=4;spacingRight=4;whiteSpace=wrap;overflow=hidden;rotatable=0;points=[[0,0.5],[1,0.5]];portConstraint=eastwest;" parent="L1IDQ7KOCl5srtxUm-I5-19" vertex="1">
                    <mxGeometry y="494" width="500" height="26" as="geometry"/>
                </mxCell>
                <mxCell id="L1IDQ7KOCl5srtxUm-I5-54" value="+&amp;nbsp;K_&lt;span style=&quot;background-color: initial;&quot;&gt;:&amp;nbsp;&lt;/span&gt;&lt;span style=&quot;background-color: initial;&quot;&gt;&amp;nbsp;&lt;/span&gt;&lt;span style=&quot;background-color: initial;&quot;&gt;Eigen::Matrix&amp;lt;double, kStateSize, kMeasurementSize&amp;gt;&amp;gt; // Kalman gain matrix&lt;/span&gt;" style="text;html=1;strokeColor=none;fillColor=none;align=left;verticalAlign=top;spacingLeft=4;spacingRight=4;whiteSpace=wrap;overflow=hidden;rotatable=0;points=[[0,0.5],[1,0.5]];portConstraint=eastwest;" parent="L1IDQ7KOCl5srtxUm-I5-19" vertex="1">
                    <mxGeometry y="520" width="500" height="26" as="geometry"/>
                </mxCell>
                <mxCell id="L1IDQ7KOCl5srtxUm-I5-55" value="+&amp;nbsp;H_&lt;span style=&quot;background-color: initial;&quot;&gt;:&amp;nbsp;&lt;/span&gt;&lt;span style=&quot;background-color: initial;&quot;&gt;&amp;nbsp;&lt;/span&gt;&lt;span style=&quot;background-color: initial;&quot;&gt;Eigen::SparseMatrix&amp;lt;double&amp;gt; // Measurement matrix&lt;/span&gt;" style="text;html=1;strokeColor=none;fillColor=none;align=left;verticalAlign=top;spacingLeft=4;spacingRight=4;whiteSpace=wrap;overflow=hidden;rotatable=0;points=[[0,0.5],[1,0.5]];portConstraint=eastwest;" parent="L1IDQ7KOCl5srtxUm-I5-19" vertex="1">
                    <mxGeometry y="546" width="500" height="26" as="geometry"/>
                </mxCell>
                <mxCell id="L1IDQ7KOCl5srtxUm-I5-56" value="+&amp;nbsp;external_forces_limit_&lt;span style=&quot;background-color: initial;&quot;&gt;:&amp;nbsp;&lt;/span&gt;&lt;span style=&quot;background-color: initial;&quot;&gt;&amp;nbsp;&lt;/span&gt;&lt;span style=&quot;background-color: initial;&quot;&gt;Eigen::Vector3d&lt;/span&gt;" style="text;html=1;strokeColor=none;fillColor=none;align=left;verticalAlign=top;spacingLeft=4;spacingRight=4;whiteSpace=wrap;overflow=hidden;rotatable=0;points=[[0,0.5],[1,0.5]];portConstraint=eastwest;" parent="L1IDQ7KOCl5srtxUm-I5-19" vertex="1">
                    <mxGeometry y="572" width="500" height="26" as="geometry"/>
                </mxCell>
                <mxCell id="L1IDQ7KOCl5srtxUm-I5-58" value="+&amp;nbsp;external_moments_limit_&lt;span style=&quot;background-color: initial;&quot;&gt;:&amp;nbsp;&lt;/span&gt;&lt;span style=&quot;background-color: initial;&quot;&gt;&amp;nbsp;&lt;/span&gt;&lt;span style=&quot;background-color: initial;&quot;&gt;Eigen::Vector3d&lt;/span&gt;" style="text;html=1;strokeColor=none;fillColor=none;align=left;verticalAlign=top;spacingLeft=4;spacingRight=4;whiteSpace=wrap;overflow=hidden;rotatable=0;points=[[0,0.5],[1,0.5]];portConstraint=eastwest;" parent="L1IDQ7KOCl5srtxUm-I5-19" vertex="1">
                    <mxGeometry y="598" width="500" height="26" as="geometry"/>
                </mxCell>
                <mxCell id="L1IDQ7KOCl5srtxUm-I5-57" value="+&amp;nbsp;omega_limit_&lt;span style=&quot;background-color: initial;&quot;&gt;:&amp;nbsp;&lt;/span&gt;&lt;span style=&quot;background-color: initial;&quot;&gt;&amp;nbsp;&lt;/span&gt;&lt;span style=&quot;background-color: initial;&quot;&gt;Eigen::Vector3d&lt;/span&gt;" style="text;html=1;strokeColor=none;fillColor=none;align=left;verticalAlign=top;spacingLeft=4;spacingRight=4;whiteSpace=wrap;overflow=hidden;rotatable=0;points=[[0,0.5],[1,0.5]];portConstraint=eastwest;" parent="L1IDQ7KOCl5srtxUm-I5-19" vertex="1">
                    <mxGeometry y="624" width="500" height="26" as="geometry"/>
                </mxCell>
                <mxCell id="L1IDQ7KOCl5srtxUm-I5-59" value="// Parameters" style="text;html=1;strokeColor=#82b366;fillColor=#d5e8d4;align=left;verticalAlign=top;spacingLeft=4;spacingRight=4;whiteSpace=wrap;overflow=hidden;rotatable=0;points=[[0,0.5],[1,0.5]];portConstraint=eastwest;" parent="L1IDQ7KOCl5srtxUm-I5-19" vertex="1">
                    <mxGeometry y="650" width="500" height="26" as="geometry"/>
                </mxCell>
                <mxCell id="L1IDQ7KOCl5srtxUm-I5-60" value="+&amp;nbsp;roll_damping_&lt;span style=&quot;background-color: initial;&quot;&gt;:&amp;nbsp;&lt;/span&gt;&lt;span style=&quot;background-color: initial;&quot;&gt;&amp;nbsp;&lt;/span&gt;&lt;span style=&quot;background-color: initial;&quot;&gt;double&lt;/span&gt;" style="text;html=1;strokeColor=none;fillColor=none;align=left;verticalAlign=top;spacingLeft=4;spacingRight=4;whiteSpace=wrap;overflow=hidden;rotatable=0;points=[[0,0.5],[1,0.5]];portConstraint=eastwest;" parent="L1IDQ7KOCl5srtxUm-I5-19" vertex="1">
                    <mxGeometry y="676" width="500" height="26" as="geometry"/>
                </mxCell>
                <mxCell id="L1IDQ7KOCl5srtxUm-I5-61" value="+&amp;nbsp;roll_omega_&lt;span style=&quot;background-color: initial;&quot;&gt;:&amp;nbsp;&lt;/span&gt;&lt;span style=&quot;background-color: initial;&quot;&gt;&amp;nbsp;&lt;/span&gt;&lt;span style=&quot;background-color: initial;&quot;&gt;double&lt;/span&gt;" style="text;html=1;strokeColor=none;fillColor=none;align=left;verticalAlign=top;spacingLeft=4;spacingRight=4;whiteSpace=wrap;overflow=hidden;rotatable=0;points=[[0,0.5],[1,0.5]];portConstraint=eastwest;" parent="L1IDQ7KOCl5srtxUm-I5-19" vertex="1">
                    <mxGeometry y="702" width="500" height="26" as="geometry"/>
                </mxCell>
                <mxCell id="L1IDQ7KOCl5srtxUm-I5-63" value="+&amp;nbsp;roll_gain_&lt;span style=&quot;background-color: initial;&quot;&gt;:&amp;nbsp;&lt;/span&gt;&lt;span style=&quot;background-color: initial;&quot;&gt;&amp;nbsp;&lt;/span&gt;&lt;span style=&quot;background-color: initial;&quot;&gt;double&lt;/span&gt;" style="text;html=1;strokeColor=none;fillColor=none;align=left;verticalAlign=top;spacingLeft=4;spacingRight=4;whiteSpace=wrap;overflow=hidden;rotatable=0;points=[[0,0.5],[1,0.5]];portConstraint=eastwest;" parent="L1IDQ7KOCl5srtxUm-I5-19" vertex="1">
                    <mxGeometry y="728" width="500" height="26" as="geometry"/>
                </mxCell>
                <mxCell id="L1IDQ7KOCl5srtxUm-I5-64" value="+&amp;nbsp;pitch_damping_&lt;span style=&quot;background-color: initial;&quot;&gt;:&amp;nbsp;&lt;/span&gt;&lt;span style=&quot;background-color: initial;&quot;&gt;&amp;nbsp;&lt;/span&gt;&lt;span style=&quot;background-color: initial;&quot;&gt;double&lt;/span&gt;" style="text;html=1;strokeColor=none;fillColor=none;align=left;verticalAlign=top;spacingLeft=4;spacingRight=4;whiteSpace=wrap;overflow=hidden;rotatable=0;points=[[0,0.5],[1,0.5]];portConstraint=eastwest;" parent="L1IDQ7KOCl5srtxUm-I5-19" vertex="1">
                    <mxGeometry y="754" width="500" height="26" as="geometry"/>
                </mxCell>
                <mxCell id="L1IDQ7KOCl5srtxUm-I5-65" value="+&amp;nbsp;pitch_omega_&lt;span style=&quot;background-color: initial;&quot;&gt;:&amp;nbsp;&lt;/span&gt;&lt;span style=&quot;background-color: initial;&quot;&gt;&amp;nbsp;&lt;/span&gt;&lt;span style=&quot;background-color: initial;&quot;&gt;double&lt;/span&gt;" style="text;html=1;strokeColor=none;fillColor=none;align=left;verticalAlign=top;spacingLeft=4;spacingRight=4;whiteSpace=wrap;overflow=hidden;rotatable=0;points=[[0,0.5],[1,0.5]];portConstraint=eastwest;" parent="L1IDQ7KOCl5srtxUm-I5-19" vertex="1">
                    <mxGeometry y="780" width="500" height="26" as="geometry"/>
                </mxCell>
                <mxCell id="L1IDQ7KOCl5srtxUm-I5-66" value="+&amp;nbsp;pitch_gain_&lt;span style=&quot;background-color: initial;&quot;&gt;:&amp;nbsp;&lt;/span&gt;&lt;span style=&quot;background-color: initial;&quot;&gt;&amp;nbsp;&lt;/span&gt;&lt;span style=&quot;background-color: initial;&quot;&gt;double&lt;/span&gt;" style="text;html=1;strokeColor=none;fillColor=none;align=left;verticalAlign=top;spacingLeft=4;spacingRight=4;whiteSpace=wrap;overflow=hidden;rotatable=0;points=[[0,0.5],[1,0.5]];portConstraint=eastwest;" parent="L1IDQ7KOCl5srtxUm-I5-19" vertex="1">
                    <mxGeometry y="806" width="500" height="26" as="geometry"/>
                </mxCell>
                <mxCell id="L1IDQ7KOCl5srtxUm-I5-62" value="+&amp;nbsp;yaw_damping_&lt;span style=&quot;background-color: initial;&quot;&gt;:&amp;nbsp;&lt;/span&gt;&lt;span style=&quot;background-color: initial;&quot;&gt;&amp;nbsp;&lt;/span&gt;&lt;span style=&quot;background-color: initial;&quot;&gt;double&lt;/span&gt;" style="text;html=1;strokeColor=none;fillColor=none;align=left;verticalAlign=top;spacingLeft=4;spacingRight=4;whiteSpace=wrap;overflow=hidden;rotatable=0;points=[[0,0.5],[1,0.5]];portConstraint=eastwest;" parent="L1IDQ7KOCl5srtxUm-I5-19" vertex="1">
                    <mxGeometry y="832" width="500" height="26" as="geometry"/>
                </mxCell>
                <mxCell id="L1IDQ7KOCl5srtxUm-I5-67" value="+&amp;nbsp;yaw_omega_&lt;span style=&quot;background-color: initial;&quot;&gt;:&amp;nbsp;&lt;/span&gt;&lt;span style=&quot;background-color: initial;&quot;&gt;&amp;nbsp;&lt;/span&gt;&lt;span style=&quot;background-color: initial;&quot;&gt;double&lt;/span&gt;" style="text;html=1;strokeColor=none;fillColor=none;align=left;verticalAlign=top;spacingLeft=4;spacingRight=4;whiteSpace=wrap;overflow=hidden;rotatable=0;points=[[0,0.5],[1,0.5]];portConstraint=eastwest;" parent="L1IDQ7KOCl5srtxUm-I5-19" vertex="1">
                    <mxGeometry y="858" width="500" height="26" as="geometry"/>
                </mxCell>
                <mxCell id="L1IDQ7KOCl5srtxUm-I5-68" value="+&amp;nbsp;yaw_gain_&lt;span style=&quot;background-color: initial;&quot;&gt;:&amp;nbsp;&lt;/span&gt;&lt;span style=&quot;background-color: initial;&quot;&gt;&amp;nbsp;&lt;/span&gt;&lt;span style=&quot;background-color: initial;&quot;&gt;double&lt;/span&gt;" style="text;html=1;strokeColor=none;fillColor=none;align=left;verticalAlign=top;spacingLeft=4;spacingRight=4;whiteSpace=wrap;overflow=hidden;rotatable=0;points=[[0,0.5],[1,0.5]];portConstraint=eastwest;" parent="L1IDQ7KOCl5srtxUm-I5-19" vertex="1">
                    <mxGeometry y="884" width="500" height="26" as="geometry"/>
                </mxCell>
                <mxCell id="L1IDQ7KOCl5srtxUm-I5-69" value="+&amp;nbsp;sampling_time_&lt;span style=&quot;background-color: initial;&quot;&gt;:&amp;nbsp;&lt;/span&gt;&lt;span style=&quot;background-color: initial;&quot;&gt;&amp;nbsp;&lt;/span&gt;&lt;span style=&quot;background-color: initial;&quot;&gt;double&lt;/span&gt;" style="text;html=1;strokeColor=none;fillColor=none;align=left;verticalAlign=top;spacingLeft=4;spacingRight=4;whiteSpace=wrap;overflow=hidden;rotatable=0;points=[[0,0.5],[1,0.5]];portConstraint=eastwest;" parent="L1IDQ7KOCl5srtxUm-I5-19" vertex="1">
                    <mxGeometry y="910" width="500" height="26" as="geometry"/>
                </mxCell>
                <mxCell id="L1IDQ7KOCl5srtxUm-I5-70" value="+&amp;nbsp;service_&lt;span style=&quot;background-color: initial;&quot;&gt;:&amp;nbsp;&lt;/span&gt;&lt;span style=&quot;background-color: initial;&quot;&gt;&amp;nbsp;&lt;/span&gt;ros::ServiceServer" style="text;html=1;strokeColor=none;fillColor=none;align=left;verticalAlign=top;spacingLeft=4;spacingRight=4;whiteSpace=wrap;overflow=hidden;rotatable=0;points=[[0,0.5],[1,0.5]];portConstraint=eastwest;" parent="L1IDQ7KOCl5srtxUm-I5-19" vertex="1">
                    <mxGeometry y="936" width="500" height="26" as="geometry"/>
                </mxCell>
                <mxCell id="L1IDQ7KOCl5srtxUm-I5-71" value="+&amp;nbsp;observer_state_pub_&lt;span style=&quot;background-color: initial;&quot;&gt;:&amp;nbsp;&lt;/span&gt;&lt;span style=&quot;background-color: initial;&quot;&gt;&amp;nbsp;&lt;/span&gt;&lt;span style=&quot;background-color: initial;&quot;&gt;ros::&lt;/span&gt;Publisher" style="text;html=1;strokeColor=none;fillColor=none;align=left;verticalAlign=top;spacingLeft=4;spacingRight=4;whiteSpace=wrap;overflow=hidden;rotatable=0;points=[[0,0.5],[1,0.5]];portConstraint=eastwest;" parent="L1IDQ7KOCl5srtxUm-I5-19" vertex="1">
                    <mxGeometry y="962" width="500" height="26" as="geometry"/>
                </mxCell>
                <mxCell id="L1IDQ7KOCl5srtxUm-I5-72" value="+&amp;nbsp;is_calibrating_&lt;span style=&quot;background-color: initial;&quot;&gt;:&amp;nbsp;&lt;/span&gt;&lt;span style=&quot;background-color: initial;&quot;&gt;&amp;nbsp;&lt;/span&gt;&lt;span style=&quot;background-color: initial;&quot;&gt;bool&lt;/span&gt;" style="text;html=1;strokeColor=none;fillColor=none;align=left;verticalAlign=top;spacingLeft=4;spacingRight=4;whiteSpace=wrap;overflow=hidden;rotatable=0;points=[[0,0.5],[1,0.5]];portConstraint=eastwest;" parent="L1IDQ7KOCl5srtxUm-I5-19" vertex="1">
                    <mxGeometry y="988" width="500" height="26" as="geometry"/>
                </mxCell>
                <mxCell id="L1IDQ7KOCl5srtxUm-I5-73" value="+&amp;nbsp;start_calibration_time_&lt;span style=&quot;background-color: initial;&quot;&gt;:&amp;nbsp;&lt;/span&gt;&lt;span style=&quot;background-color: initial;&quot;&gt;&amp;nbsp;&lt;/span&gt;&lt;span style=&quot;background-color: initial;&quot;&gt;ros::&lt;/span&gt;Time" style="text;html=1;strokeColor=none;fillColor=none;align=left;verticalAlign=top;spacingLeft=4;spacingRight=4;whiteSpace=wrap;overflow=hidden;rotatable=0;points=[[0,0.5],[1,0.5]];portConstraint=eastwest;" parent="L1IDQ7KOCl5srtxUm-I5-19" vertex="1">
                    <mxGeometry y="1014" width="500" height="26" as="geometry"/>
                </mxCell>
                <mxCell id="L1IDQ7KOCl5srtxUm-I5-74" value="+&amp;nbsp;calibration_duration_&lt;span style=&quot;background-color: initial;&quot;&gt;:&amp;nbsp;&lt;/span&gt;&lt;span style=&quot;background-color: initial;&quot;&gt;&amp;nbsp;&lt;/span&gt;&lt;span style=&quot;background-color: initial;&quot;&gt;ros::&lt;/span&gt;Duration" style="text;html=1;strokeColor=none;fillColor=none;align=left;verticalAlign=top;spacingLeft=4;spacingRight=4;whiteSpace=wrap;overflow=hidden;rotatable=0;points=[[0,0.5],[1,0.5]];portConstraint=eastwest;" parent="L1IDQ7KOCl5srtxUm-I5-19" vertex="1">
                    <mxGeometry y="1040" width="500" height="26" as="geometry"/>
                </mxCell>
                <mxCell id="L1IDQ7KOCl5srtxUm-I5-75" value="+&amp;nbsp;forces_offset_&lt;span style=&quot;background-color: initial;&quot;&gt;:&amp;nbsp;&lt;/span&gt;&lt;span style=&quot;background-color: initial;&quot;&gt;&amp;nbsp;&lt;/span&gt;Eigen::Vector3d" style="text;html=1;strokeColor=none;fillColor=none;align=left;verticalAlign=top;spacingLeft=4;spacingRight=4;whiteSpace=wrap;overflow=hidden;rotatable=0;points=[[0,0.5],[1,0.5]];portConstraint=eastwest;" parent="L1IDQ7KOCl5srtxUm-I5-19" vertex="1">
                    <mxGeometry y="1066" width="500" height="26" as="geometry"/>
                </mxCell>
                <mxCell id="L1IDQ7KOCl5srtxUm-I5-76" value="+&amp;nbsp;moments_offset_&lt;span style=&quot;background-color: initial;&quot;&gt;:&amp;nbsp;&lt;/span&gt;&lt;span style=&quot;background-color: initial;&quot;&gt;&amp;nbsp;&lt;/span&gt;Eigen::Vector3d" style="text;html=1;strokeColor=none;fillColor=none;align=left;verticalAlign=top;spacingLeft=4;spacingRight=4;whiteSpace=wrap;overflow=hidden;rotatable=0;points=[[0,0.5],[1,0.5]];portConstraint=eastwest;" parent="L1IDQ7KOCl5srtxUm-I5-19" vertex="1">
                    <mxGeometry y="1092" width="500" height="26" as="geometry"/>
                </mxCell>
                <mxCell id="L1IDQ7KOCl5srtxUm-I5-77" value="+&amp;nbsp;calibration_counter_&lt;span style=&quot;background-color: initial;&quot;&gt;:&amp;nbsp;&lt;/span&gt;&lt;span style=&quot;background-color: initial;&quot;&gt;&amp;nbsp;int&lt;/span&gt;" style="text;html=1;strokeColor=none;fillColor=none;align=left;verticalAlign=top;spacingLeft=4;spacingRight=4;whiteSpace=wrap;overflow=hidden;rotatable=0;points=[[0,0.5],[1,0.5]];portConstraint=eastwest;" parent="L1IDQ7KOCl5srtxUm-I5-19" vertex="1">
                    <mxGeometry y="1118" width="500" height="26" as="geometry"/>
                </mxCell>
                <mxCell id="L1IDQ7KOCl5srtxUm-I5-78" value="+&amp;nbsp;startCalibration&lt;span style=&quot;background-color: initial;&quot;&gt;:&amp;nbsp;&lt;/span&gt;&lt;span style=&quot;background-color: initial;&quot;&gt;&amp;nbsp;&lt;/span&gt;&lt;span style=&quot;background-color: initial;&quot;&gt;bool&lt;/span&gt;" style="text;html=1;strokeColor=none;fillColor=none;align=left;verticalAlign=top;spacingLeft=4;spacingRight=4;whiteSpace=wrap;overflow=hidden;rotatable=0;points=[[0,0.5],[1,0.5]];portConstraint=eastwest;" parent="L1IDQ7KOCl5srtxUm-I5-19" vertex="1">
                    <mxGeometry y="1144" width="500" height="26" as="geometry"/>
                </mxCell>
                <mxCell id="L1IDQ7KOCl5srtxUm-I5-79" value="+&amp;nbsp;initialize()&lt;span style=&quot;background-color: initial;&quot;&gt;:&amp;nbsp;&lt;/span&gt;&lt;span style=&quot;background-color: initial;&quot;&gt;&amp;nbsp;&lt;/span&gt;&lt;span style=&quot;background-color: initial;&quot;&gt;void&lt;/span&gt;" style="text;html=1;strokeColor=none;fillColor=none;align=left;verticalAlign=top;spacingLeft=4;spacingRight=4;whiteSpace=wrap;overflow=hidden;rotatable=0;points=[[0,0.5],[1,0.5]];portConstraint=eastwest;" parent="L1IDQ7KOCl5srtxUm-I5-19" vertex="1">
                    <mxGeometry y="1170" width="500" height="26" as="geometry"/>
                </mxCell>
                <mxCell id="L1IDQ7KOCl5srtxUm-I5-80" value="+&amp;nbsp;systemDynamics(double dt)&lt;span style=&quot;background-color: initial;&quot;&gt;:&amp;nbsp;&lt;/span&gt;&lt;span style=&quot;background-color: initial;&quot;&gt;&amp;nbsp;int&lt;/span&gt;" style="text;html=1;strokeColor=none;fillColor=none;align=left;verticalAlign=top;spacingLeft=4;spacingRight=4;whiteSpace=wrap;overflow=hidden;rotatable=0;points=[[0,0.5],[1,0.5]];portConstraint=eastwest;" parent="L1IDQ7KOCl5srtxUm-I5-19" vertex="1">
                    <mxGeometry y="1196" width="500" height="26" as="geometry"/>
                </mxCell>
                <mxCell id="L1IDQ7KOCl5srtxUm-I5-81" value="+&amp;nbsp;startCalibrationCallback(std_srvs::Empty::Request&amp;amp; req, std_srvs::Empty::Response&amp;amp; res)&lt;span style=&quot;background-color: initial;&quot;&gt;:&amp;nbsp;&lt;/span&gt;&lt;span style=&quot;background-color: initial;&quot;&gt;&amp;nbsp;&lt;/span&gt;Eigen::Vector3d" style="text;html=1;strokeColor=none;fillColor=none;align=left;verticalAlign=top;spacingLeft=4;spacingRight=4;whiteSpace=wrap;overflow=hidden;rotatable=0;points=[[0,0.5],[1,0.5]];portConstraint=eastwest;" parent="L1IDQ7KOCl5srtxUm-I5-19" vertex="1">
                    <mxGeometry y="1222" width="500" height="38" as="geometry"/>
                </mxCell>
                <mxCell id="L1IDQ7KOCl5srtxUm-I5-82" value="+&amp;nbsp;dyn_config_server_&lt;span style=&quot;background-color: initial;&quot;&gt;:&amp;nbsp;&lt;/span&gt;&lt;span style=&quot;background-color: initial;&quot;&gt;&amp;nbsp;&lt;/span&gt;&amp;nbsp;dynamic_reconfigure::Server" style="text;html=1;strokeColor=none;fillColor=none;align=left;verticalAlign=top;spacingLeft=4;spacingRight=4;whiteSpace=wrap;overflow=hidden;rotatable=0;points=[[0,0.5],[1,0.5]];portConstraint=eastwest;" parent="L1IDQ7KOCl5srtxUm-I5-19" vertex="1">
                    <mxGeometry y="1260" width="500" height="26" as="geometry"/>
                </mxCell>
                <mxCell id="L1IDQ7KOCl5srtxUm-I5-83" value="+&amp;nbsp;DynConfigCallback(mav_disturbance_observer::KFDisturbanceObserverConfig &amp;amp;config, uint32_t level)&lt;span style=&quot;background-color: initial;&quot;&gt;:&amp;nbsp;&lt;/span&gt;&lt;span style=&quot;background-color: initial;&quot;&gt;&amp;nbsp;void&lt;/span&gt;" style="text;html=1;strokeColor=none;fillColor=none;align=left;verticalAlign=top;spacingLeft=4;spacingRight=4;whiteSpace=wrap;overflow=hidden;rotatable=0;points=[[0,0.5],[1,0.5]];portConstraint=eastwest;" parent="L1IDQ7KOCl5srtxUm-I5-19" vertex="1">
                    <mxGeometry y="1286" width="500" height="34" as="geometry"/>
                </mxCell>
                <mxCell id="L1IDQ7KOCl5srtxUm-I5-84" value="+ loadROSParams(): void" style="text;html=1;strokeColor=none;fillColor=none;align=left;verticalAlign=top;spacingLeft=4;spacingRight=4;whiteSpace=wrap;overflow=hidden;rotatable=0;points=[[0,0.5],[1,0.5]];portConstraint=eastwest;" parent="L1IDQ7KOCl5srtxUm-I5-19" vertex="1">
                    <mxGeometry y="1320" width="500" height="26" as="geometry"/>
                </mxCell>
                <mxCell id="L1IDQ7KOCl5srtxUm-I5-101" value="" style="line;html=1;strokeWidth=1;fillColor=none;align=left;verticalAlign=middle;spacingTop=-1;spacingLeft=3;spacingRight=3;rotatable=0;labelPosition=right;points=[];portConstraint=eastwest;" parent="L1IDQ7KOCl5srtxUm-I5-19" vertex="1">
                    <mxGeometry y="1346" width="500" height="8" as="geometry"/>
                </mxCell>
                <mxCell id="L1IDQ7KOCl5srtxUm-I5-120" value="Public" style="text;html=1;strokeColor=#6c8ebf;fillColor=#dae8fc;align=left;verticalAlign=top;spacingLeft=4;spacingRight=4;whiteSpace=wrap;overflow=hidden;rotatable=0;points=[[0,0.5],[1,0.5]];portConstraint=eastwest;" parent="L1IDQ7KOCl5srtxUm-I5-19" vertex="1">
                    <mxGeometry y="1354" width="500" height="26" as="geometry"/>
                </mxCell>
                <mxCell id="L1IDQ7KOCl5srtxUm-I5-121" value="+&amp;nbsp;KFDisturbanceObserver(const ros::NodeHandle&amp;amp; nh, const ros::NodeHandle&amp;amp; private_nh)" style="text;html=1;strokeColor=none;fillColor=none;align=left;verticalAlign=top;spacingLeft=4;spacingRight=4;whiteSpace=wrap;overflow=hidden;rotatable=0;points=[[0,0.5],[1,0.5]];portConstraint=eastwest;" parent="L1IDQ7KOCl5srtxUm-I5-19" vertex="1">
                    <mxGeometry y="1380" width="500" height="26" as="geometry"/>
                </mxCell>
                <mxCell id="L1IDQ7KOCl5srtxUm-I5-119" value="+&amp;nbsp;void reset(const Eigen::Vector3d&amp;amp; initial_position, const Eigen::Vector3d&amp;amp; initial_velocity,&lt;div&gt;&amp;nbsp; &amp;nbsp; &amp;nbsp; &amp;nbsp; &amp;nbsp; &amp;nbsp; &amp;nbsp;const Eigen::Vector3d&amp;amp; initial_attitude, const Eigen::Vector3d&amp;amp; initial_angular_rate,&lt;/div&gt;&lt;div&gt;&amp;nbsp; &amp;nbsp; &amp;nbsp; &amp;nbsp; &amp;nbsp; &amp;nbsp; &amp;nbsp;const Eigen::Vector3d&amp;amp; initial_external_forces,&lt;/div&gt;&lt;div&gt;&amp;nbsp; &amp;nbsp; &amp;nbsp; &amp;nbsp; &amp;nbsp; &amp;nbsp; &amp;nbsp;const Eigen::Vector3d&amp;amp; initial_external_moments);&lt;/div&gt;" style="text;html=1;strokeColor=none;fillColor=none;align=left;verticalAlign=top;spacingLeft=4;spacingRight=4;whiteSpace=wrap;overflow=hidden;rotatable=0;points=[[0,0.5],[1,0.5]];portConstraint=eastwest;" parent="L1IDQ7KOCl5srtxUm-I5-19" vertex="1">
                    <mxGeometry y="1406" width="500" height="74" as="geometry"/>
                </mxCell>
                <mxCell id="L1IDQ7KOCl5srtxUm-I5-102" value="//Getters" style="text;html=1;strokeColor=#82b366;fillColor=#d5e8d4;align=left;verticalAlign=top;spacingLeft=4;spacingRight=4;whiteSpace=wrap;overflow=hidden;rotatable=0;points=[[0,0.5],[1,0.5]];portConstraint=eastwest;" parent="L1IDQ7KOCl5srtxUm-I5-19" vertex="1">
                    <mxGeometry y="1480" width="500" height="26" as="geometry"/>
                </mxCell>
                <mxCell id="L1IDQ7KOCl5srtxUm-I5-103" value="+&amp;nbsp;getEstimatedPosition&lt;span style=&quot;background-color: initial;&quot;&gt;():&amp;nbsp;&lt;/span&gt;Eigen::Vector3d" style="text;html=1;strokeColor=none;fillColor=none;align=left;verticalAlign=top;spacingLeft=4;spacingRight=4;whiteSpace=wrap;overflow=hidden;rotatable=0;points=[[0,0.5],[1,0.5]];portConstraint=eastwest;" parent="L1IDQ7KOCl5srtxUm-I5-19" vertex="1">
                    <mxGeometry y="1506" width="500" height="26" as="geometry"/>
                </mxCell>
                <mxCell id="L1IDQ7KOCl5srtxUm-I5-107" value="+&amp;nbsp;getEstimatedExternalForces&lt;span style=&quot;background-color: initial;&quot;&gt;(): Eigen::Vector3d&lt;/span&gt;" style="text;html=1;strokeColor=none;fillColor=none;align=left;verticalAlign=top;spacingLeft=4;spacingRight=4;whiteSpace=wrap;overflow=hidden;rotatable=0;points=[[0,0.5],[1,0.5]];portConstraint=eastwest;" parent="L1IDQ7KOCl5srtxUm-I5-19" vertex="1">
                    <mxGeometry y="1532" width="500" height="26" as="geometry"/>
                </mxCell>
                <mxCell id="L1IDQ7KOCl5srtxUm-I5-106" value="+ getEstimatedAngularVelocity(): Eigen::Vector3d" style="text;html=1;strokeColor=none;fillColor=none;align=left;verticalAlign=top;spacingLeft=4;spacingRight=4;whiteSpace=wrap;overflow=hidden;rotatable=0;points=[[0,0.5],[1,0.5]];portConstraint=eastwest;" parent="L1IDQ7KOCl5srtxUm-I5-19" vertex="1">
                    <mxGeometry y="1558" width="500" height="26" as="geometry"/>
                </mxCell>
                <mxCell id="L1IDQ7KOCl5srtxUm-I5-108" value="+&amp;nbsp;getEstimatedExternalMoments&lt;span style=&quot;background-color: initial;&quot;&gt;(): Eigen::Vector3d&lt;/span&gt;" style="text;html=1;strokeColor=none;fillColor=none;align=left;verticalAlign=top;spacingLeft=4;spacingRight=4;whiteSpace=wrap;overflow=hidden;rotatable=0;points=[[0,0.5],[1,0.5]];portConstraint=eastwest;" parent="L1IDQ7KOCl5srtxUm-I5-19" vertex="1">
                    <mxGeometry y="1584" width="500" height="26" as="geometry"/>
                </mxCell>
                <mxCell id="L1IDQ7KOCl5srtxUm-I5-105" value="+ getEstimatedAttitude(): Eigen::Vector3d" style="text;html=1;strokeColor=none;fillColor=none;align=left;verticalAlign=top;spacingLeft=4;spacingRight=4;whiteSpace=wrap;overflow=hidden;rotatable=0;points=[[0,0.5],[1,0.5]];portConstraint=eastwest;" parent="L1IDQ7KOCl5srtxUm-I5-19" vertex="1">
                    <mxGeometry y="1610" width="500" height="26" as="geometry"/>
                </mxCell>
                <mxCell id="L1IDQ7KOCl5srtxUm-I5-109" value="+&amp;nbsp;getEstimatedState&lt;span style=&quot;background-color: initial;&quot;&gt;(Eigen::VectorXd* estimated_state): void&lt;/span&gt;" style="text;html=1;strokeColor=none;fillColor=none;align=left;verticalAlign=top;spacingLeft=4;spacingRight=4;whiteSpace=wrap;overflow=hidden;rotatable=0;points=[[0,0.5],[1,0.5]];portConstraint=eastwest;" parent="L1IDQ7KOCl5srtxUm-I5-19" vertex="1">
                    <mxGeometry y="1636" width="500" height="26" as="geometry"/>
                </mxCell>
                <mxCell id="L1IDQ7KOCl5srtxUm-I5-104" value="+ getEstimatedVelocity(): Eigen::Vector3d" style="text;html=1;strokeColor=none;fillColor=none;align=left;verticalAlign=top;spacingLeft=4;spacingRight=4;whiteSpace=wrap;overflow=hidden;rotatable=0;points=[[0,0.5],[1,0.5]];portConstraint=eastwest;" parent="L1IDQ7KOCl5srtxUm-I5-19" vertex="1">
                    <mxGeometry y="1662" width="500" height="26" as="geometry"/>
                </mxCell>
                <mxCell id="L1IDQ7KOCl5srtxUm-I5-110" value="//Feeding" style="text;html=1;strokeColor=#82b366;fillColor=#d5e8d4;align=left;verticalAlign=top;spacingLeft=4;spacingRight=4;whiteSpace=wrap;overflow=hidden;rotatable=0;points=[[0,0.5],[1,0.5]];portConstraint=eastwest;" parent="L1IDQ7KOCl5srtxUm-I5-19" vertex="1">
                    <mxGeometry y="1688" width="500" height="26" as="geometry"/>
                </mxCell>
                <mxCell id="L1IDQ7KOCl5srtxUm-I5-114" value="+&amp;nbsp;feedAttitudeCommand(const Eigen::Vector3d&amp;amp;&amp;nbsp;roll_pitch_yaw_thrust_cmd&lt;span style=&quot;background-color: initial;&quot;&gt;): void&lt;/span&gt;" style="text;html=1;strokeColor=none;fillColor=none;align=left;verticalAlign=top;spacingLeft=4;spacingRight=4;whiteSpace=wrap;overflow=hidden;rotatable=0;points=[[0,0.5],[1,0.5]];portConstraint=eastwest;" parent="L1IDQ7KOCl5srtxUm-I5-19" vertex="1">
                    <mxGeometry y="1714" width="500" height="26" as="geometry"/>
                </mxCell>
                <mxCell id="L1IDQ7KOCl5srtxUm-I5-111" value="+&amp;nbsp;feedPositionMeasurement&lt;span style=&quot;background-color: initial;&quot;&gt;(const Eigen::Vector3d&amp;amp; position): void&lt;/span&gt;" style="text;html=1;strokeColor=none;fillColor=none;align=left;verticalAlign=top;spacingLeft=4;spacingRight=4;whiteSpace=wrap;overflow=hidden;rotatable=0;points=[[0,0.5],[1,0.5]];portConstraint=eastwest;" parent="L1IDQ7KOCl5srtxUm-I5-19" vertex="1">
                    <mxGeometry y="1740" width="500" height="26" as="geometry"/>
                </mxCell>
                <mxCell id="L1IDQ7KOCl5srtxUm-I5-112" value="+&amp;nbsp;feedVelocityMeasurement(const Eigen::Vector3d&amp;amp;&amp;nbsp;velocity&lt;span style=&quot;background-color: initial;&quot;&gt;): void&lt;/span&gt;" style="text;html=1;strokeColor=none;fillColor=none;align=left;verticalAlign=top;spacingLeft=4;spacingRight=4;whiteSpace=wrap;overflow=hidden;rotatable=0;points=[[0,0.5],[1,0.5]];portConstraint=eastwest;" parent="L1IDQ7KOCl5srtxUm-I5-19" vertex="1">
                    <mxGeometry y="1766" width="500" height="26" as="geometry"/>
                </mxCell>
                <mxCell id="L1IDQ7KOCl5srtxUm-I5-113" value="+&amp;nbsp;feedRotationMatrix(const Eigen::Vector3d&amp;amp;&amp;nbsp;rotation_matrix&lt;span style=&quot;background-color: initial;&quot;&gt;): void&lt;/span&gt;" style="text;html=1;strokeColor=none;fillColor=none;align=left;verticalAlign=top;spacingLeft=4;spacingRight=4;whiteSpace=wrap;overflow=hidden;rotatable=0;points=[[0,0.5],[1,0.5]];portConstraint=eastwest;" parent="L1IDQ7KOCl5srtxUm-I5-19" vertex="1">
                    <mxGeometry y="1792" width="500" height="26" as="geometry"/>
                </mxCell>
                <mxCell id="L1IDQ7KOCl5srtxUm-I5-115" value="+&amp;nbsp;updateEstimator&lt;span style=&quot;background-color: initial;&quot;&gt;(): bool&lt;/span&gt;" style="text;html=1;strokeColor=none;fillColor=none;align=left;verticalAlign=top;spacingLeft=4;spacingRight=4;whiteSpace=wrap;overflow=hidden;rotatable=0;points=[[0,0.5],[1,0.5]];portConstraint=eastwest;" parent="L1IDQ7KOCl5srtxUm-I5-19" vertex="1">
                    <mxGeometry y="1818" width="500" height="26" as="geometry"/>
                </mxCell>
                <mxCell id="L1IDQ7KOCl5srtxUm-I5-116" value="+&amp;nbsp;KFDisturbanceObserver&lt;span style=&quot;background-color: initial;&quot;&gt;(): virtual&lt;/span&gt;" style="text;html=1;strokeColor=none;fillColor=none;align=left;verticalAlign=top;spacingLeft=4;spacingRight=4;whiteSpace=wrap;overflow=hidden;rotatable=0;points=[[0,0.5],[1,0.5]];portConstraint=eastwest;" parent="L1IDQ7KOCl5srtxUm-I5-19" vertex="1">
                    <mxGeometry y="1844" width="500" height="26" as="geometry"/>
                </mxCell>
                <mxCell id="L1IDQ7KOCl5srtxUm-I5-123" value="Include" style="swimlane;whiteSpace=wrap;html=1;" parent="1" vertex="1">
                    <mxGeometry x="500" width="360" height="300" as="geometry"/>
                </mxCell>
                <mxCell id="L1IDQ7KOCl5srtxUm-I5-124" value="&lt;div&gt;#include &amp;lt;Eigen/Core&amp;gt;&lt;/div&gt;&lt;div&gt;#include &amp;lt;Eigen/Dense&amp;gt;&lt;/div&gt;&lt;div&gt;#include &amp;lt;Eigen/Sparse&amp;gt;&lt;/div&gt;&lt;div&gt;#include &amp;lt;ros/ros.h&amp;gt;&lt;/div&gt;&lt;div&gt;#include &amp;lt;mav_disturbance_observer/ObserverState.h&amp;gt;&lt;/div&gt;&lt;div&gt;#include &amp;lt;std_srvs/Empty.h&amp;gt;&lt;/div&gt;&lt;div&gt;#include &amp;lt;iostream&amp;gt;&lt;/div&gt;&lt;div&gt;#include &amp;lt;unsupported/Eigen/MatrixFunctions&amp;gt;&lt;/div&gt;&lt;div&gt;&lt;br&gt;&lt;/div&gt;&lt;div style=&quot;text-align: center;&quot;&gt;//dynamic reconfigure&lt;/div&gt;&lt;div&gt;#include &amp;lt;dynamic_reconfigure/server.h&amp;gt;&lt;/div&gt;&lt;div&gt;#include &amp;lt;mav_disturbance_observer/KFDisturbanceObserverConfig.h&amp;gt;&lt;/div&gt;" style="text;html=1;strokeColor=none;fillColor=none;align=left;verticalAlign=top;spacingLeft=4;spacingRight=4;whiteSpace=wrap;overflow=hidden;rotatable=0;points=[[0,0.5],[1,0.5]];portConstraint=eastwest;" parent="L1IDQ7KOCl5srtxUm-I5-123" vertex="1">
                    <mxGeometry y="26" width="360" height="204" as="geometry"/>
                </mxCell>
                <mxCell id="L1IDQ7KOCl5srtxUm-I5-197" value="linear_mpc" style="swimlane;html=1;fontStyle=1;align=center;verticalAlign=top;childLayout=stackLayout;horizontal=1;startSize=26;horizontalStack=0;resizeParent=1;resizeLast=0;collapsible=1;marginBottom=0;swimlaneFillColor=none;rounded=0;shadow=0;comic=0;labelBackgroundColor=none;strokeWidth=1;fillColor=none;fontFamily=Verdana;fontSize=12;fontColor=default;" parent="1" vertex="1">
                    <mxGeometry x="940" width="500" height="1920" as="geometry">
                        <mxRectangle width="200" height="30" as="alternateBounds"/>
                    </mxGeometry>
                </mxCell>
                <mxCell id="L1IDQ7KOCl5srtxUm-I5-198" value="Private" style="text;html=1;strokeColor=#b85450;fillColor=#f8cecc;align=left;verticalAlign=top;spacingLeft=4;spacingRight=4;whiteSpace=wrap;overflow=hidden;rotatable=0;points=[[0,0.5],[1,0.5]];portConstraint=eastwest;" parent="L1IDQ7KOCl5srtxUm-I5-197" vertex="1">
                    <mxGeometry y="26" width="500" height="26" as="geometry"/>
                </mxCell>
                <mxCell id="L1IDQ7KOCl5srtxUm-I5-199" value="+&amp;nbsp;kStateSize&lt;span style=&quot;background-color: initial;&quot;&gt;:&amp;nbsp;&lt;/span&gt;static constexpr int" style="text;html=1;strokeColor=none;fillColor=none;align=left;verticalAlign=top;spacingLeft=4;spacingRight=4;whiteSpace=wrap;overflow=hidden;rotatable=0;points=[[0,0.5],[1,0.5]];portConstraint=eastwest;" parent="L1IDQ7KOCl5srtxUm-I5-197" vertex="1">
                    <mxGeometry y="52" width="500" height="26" as="geometry"/>
                </mxCell>
                <mxCell id="L1IDQ7KOCl5srtxUm-I5-201" value="+&amp;nbsp;kInputSize&lt;span style=&quot;background-color: initial;&quot;&gt;:&amp;nbsp;&lt;/span&gt;&lt;span style=&quot;background-color: initial;&quot;&gt;static constexpr double&lt;/span&gt;" style="text;html=1;strokeColor=none;fillColor=none;align=left;verticalAlign=top;spacingLeft=4;spacingRight=4;whiteSpace=wrap;overflow=hidden;rotatable=0;points=[[0,0.5],[1,0.5]];portConstraint=eastwest;" parent="L1IDQ7KOCl5srtxUm-I5-197" vertex="1">
                    <mxGeometry y="78" width="500" height="26" as="geometry"/>
                </mxCell>
                <mxCell id="L1IDQ7KOCl5srtxUm-I5-200" value="+&amp;nbsp;kMeasurementSize&lt;span style=&quot;background-color: initial;&quot;&gt;:&amp;nbsp;&lt;/span&gt;static constexpr int" style="text;html=1;strokeColor=none;fillColor=none;align=left;verticalAlign=top;spacingLeft=4;spacingRight=4;whiteSpace=wrap;overflow=hidden;rotatable=0;points=[[0,0.5],[1,0.5]];portConstraint=eastwest;" parent="L1IDQ7KOCl5srtxUm-I5-197" vertex="1">
                    <mxGeometry y="104" width="500" height="26" as="geometry"/>
                </mxCell>
                <mxCell id="L1IDQ7KOCl5srtxUm-I5-202" value="+&amp;nbsp;nh_&lt;span style=&quot;background-color: initial;&quot;&gt;:&amp;nbsp;&lt;/span&gt;&amp;nbsp;ros::NodeHandle" style="text;html=1;strokeColor=none;fillColor=none;align=left;verticalAlign=top;spacingLeft=4;spacingRight=4;whiteSpace=wrap;overflow=hidden;rotatable=0;points=[[0,0.5],[1,0.5]];portConstraint=eastwest;" parent="L1IDQ7KOCl5srtxUm-I5-197" vertex="1">
                    <mxGeometry y="130" width="500" height="26" as="geometry"/>
                </mxCell>
                <mxCell id="L1IDQ7KOCl5srtxUm-I5-203" value="+&amp;nbsp;private_nh_&lt;span style=&quot;background-color: initial;&quot;&gt;:&amp;nbsp;&lt;/span&gt;&lt;span style=&quot;background-color: initial;&quot;&gt;&amp;nbsp;ros::NodeHandle&lt;/span&gt;" style="text;html=1;strokeColor=none;fillColor=none;align=left;verticalAlign=top;spacingLeft=4;spacingRight=4;whiteSpace=wrap;overflow=hidden;rotatable=0;points=[[0,0.5],[1,0.5]];portConstraint=eastwest;" parent="L1IDQ7KOCl5srtxUm-I5-197" vertex="1">
                    <mxGeometry y="156" width="500" height="26" as="geometry"/>
                </mxCell>
                <mxCell id="L1IDQ7KOCl5srtxUm-I5-204" value="+&amp;nbsp;observer_nh_&lt;span style=&quot;background-color: initial;&quot;&gt;:&amp;nbsp;&lt;/span&gt;&lt;span style=&quot;background-color: initial;&quot;&gt;&amp;nbsp;ros::NodeHandle&lt;/span&gt;" style="text;html=1;strokeColor=none;fillColor=none;align=left;verticalAlign=top;spacingLeft=4;spacingRight=4;whiteSpace=wrap;overflow=hidden;rotatable=0;points=[[0,0.5],[1,0.5]];portConstraint=eastwest;" parent="L1IDQ7KOCl5srtxUm-I5-197" vertex="1">
                    <mxGeometry y="182" width="500" height="26" as="geometry"/>
                </mxCell>
                <mxCell id="L1IDQ7KOCl5srtxUm-I5-205" value="+&amp;nbsp;initialized_&lt;span style=&quot;background-color: initial;&quot;&gt;:&amp;nbsp;&lt;/span&gt;&lt;span style=&quot;background-color: initial;&quot;&gt;&amp;nbsp;&lt;/span&gt;&lt;span style=&quot;background-color: initial;&quot;&gt;bool&lt;/span&gt;" style="text;html=1;strokeColor=none;fillColor=none;align=left;verticalAlign=top;spacingLeft=4;spacingRight=4;whiteSpace=wrap;overflow=hidden;rotatable=0;points=[[0,0.5],[1,0.5]];portConstraint=eastwest;" parent="L1IDQ7KOCl5srtxUm-I5-197" vertex="1">
                    <mxGeometry y="208" width="500" height="26" as="geometry"/>
                </mxCell>
                <mxCell id="L1IDQ7KOCl5srtxUm-I5-206" value="+&amp;nbsp;state_&lt;span style=&quot;background-color: initial;&quot;&gt;:&amp;nbsp;&lt;/span&gt;&lt;span style=&quot;background-color: initial;&quot;&gt;&amp;nbsp;&lt;/span&gt;&lt;span style=&quot;background-color: initial;&quot;&gt;Eigen::Matrix&amp;lt;double, kStateSize, 1&amp;gt;&lt;/span&gt;" style="text;html=1;strokeColor=none;fillColor=none;align=left;verticalAlign=top;spacingLeft=4;spacingRight=4;whiteSpace=wrap;overflow=hidden;rotatable=0;points=[[0,0.5],[1,0.5]];portConstraint=eastwest;" parent="L1IDQ7KOCl5srtxUm-I5-197" vertex="1">
                    <mxGeometry y="234" width="500" height="26" as="geometry"/>
                </mxCell>
                <mxCell id="L1IDQ7KOCl5srtxUm-I5-207" value="+&amp;nbsp;predicted_state_&lt;span style=&quot;background-color: initial;&quot;&gt;:&amp;nbsp;&lt;/span&gt;&lt;span style=&quot;background-color: initial;&quot;&gt;&amp;nbsp;&lt;/span&gt;&lt;span style=&quot;background-color: initial;&quot;&gt;Eigen::Matrix&amp;lt;double, kStateSize, 1&amp;gt;&lt;/span&gt;" style="text;html=1;strokeColor=none;fillColor=none;align=left;verticalAlign=top;spacingLeft=4;spacingRight=4;whiteSpace=wrap;overflow=hidden;rotatable=0;points=[[0,0.5],[1,0.5]];portConstraint=eastwest;" parent="L1IDQ7KOCl5srtxUm-I5-197" vertex="1">
                    <mxGeometry y="260" width="500" height="26" as="geometry"/>
                </mxCell>
                <mxCell id="L1IDQ7KOCl5srtxUm-I5-208" value="+&amp;nbsp;measurements_&lt;span style=&quot;background-color: initial;&quot;&gt;:&amp;nbsp;&lt;/span&gt;&lt;span style=&quot;background-color: initial;&quot;&gt;&amp;nbsp;&lt;/span&gt;&lt;span style=&quot;background-color: initial;&quot;&gt;Eigen::Matrix&amp;lt;double, kStateSize, 1&amp;gt;&lt;/span&gt;" style="text;html=1;strokeColor=none;fillColor=none;align=left;verticalAlign=top;spacingLeft=4;spacingRight=4;whiteSpace=wrap;overflow=hidden;rotatable=0;points=[[0,0.5],[1,0.5]];portConstraint=eastwest;" parent="L1IDQ7KOCl5srtxUm-I5-197" vertex="1">
                    <mxGeometry y="286" width="500" height="26" as="geometry"/>
                </mxCell>
                <mxCell id="L1IDQ7KOCl5srtxUm-I5-209" value="+&amp;nbsp;rotation_matrix_&lt;span style=&quot;background-color: initial;&quot;&gt;:&amp;nbsp;&lt;/span&gt;&lt;span style=&quot;background-color: initial;&quot;&gt;&amp;nbsp;&lt;/span&gt;&lt;span style=&quot;background-color: initial;&quot;&gt;Eigen::&lt;/span&gt;&lt;span style=&quot;background-color: initial;&quot;&gt;Matrix3d&lt;/span&gt;" style="text;html=1;strokeColor=none;fillColor=none;align=left;verticalAlign=top;spacingLeft=4;spacingRight=4;whiteSpace=wrap;overflow=hidden;rotatable=0;points=[[0,0.5],[1,0.5]];portConstraint=eastwest;" parent="L1IDQ7KOCl5srtxUm-I5-197" vertex="1">
                    <mxGeometry y="312" width="500" height="26" as="geometry"/>
                </mxCell>
                <mxCell id="L1IDQ7KOCl5srtxUm-I5-210" value="+&amp;nbsp;roll_pitch_yaw_thrust_cmd_&lt;span style=&quot;background-color: initial;&quot;&gt;:&amp;nbsp;&lt;/span&gt;&lt;span style=&quot;background-color: initial;&quot;&gt;&amp;nbsp;&lt;/span&gt;&lt;span style=&quot;background-color: initial;&quot;&gt;Eigen::&lt;/span&gt;&lt;span style=&quot;background-color: initial;&quot;&gt;Vector4d&lt;/span&gt;" style="text;html=1;strokeColor=none;fillColor=none;align=left;verticalAlign=top;spacingLeft=4;spacingRight=4;whiteSpace=wrap;overflow=hidden;rotatable=0;points=[[0,0.5],[1,0.5]];portConstraint=eastwest;" parent="L1IDQ7KOCl5srtxUm-I5-197" vertex="1">
                    <mxGeometry y="338" width="500" height="26" as="geometry"/>
                </mxCell>
                <mxCell id="L1IDQ7KOCl5srtxUm-I5-211" value="+&amp;nbsp;process_noise_covariance_&lt;span style=&quot;background-color: initial;&quot;&gt;:&amp;nbsp;&lt;/span&gt;&lt;span style=&quot;background-color: initial;&quot;&gt;&amp;nbsp;&lt;/span&gt;&lt;span style=&quot;background-color: initial;&quot;&gt;Eigen::Matrix&amp;lt;double, kStateSize, 1&amp;gt;&lt;/span&gt;" style="text;html=1;strokeColor=none;fillColor=none;align=left;verticalAlign=top;spacingLeft=4;spacingRight=4;whiteSpace=wrap;overflow=hidden;rotatable=0;points=[[0,0.5],[1,0.5]];portConstraint=eastwest;" parent="L1IDQ7KOCl5srtxUm-I5-197" vertex="1">
                    <mxGeometry y="364" width="500" height="26" as="geometry"/>
                </mxCell>
                <mxCell id="L1IDQ7KOCl5srtxUm-I5-212" value="+&amp;nbsp;state_covariance_&lt;span style=&quot;background-color: initial;&quot;&gt;:&amp;nbsp;&lt;/span&gt;&lt;span style=&quot;background-color: initial;&quot;&gt;&amp;nbsp;&lt;/span&gt;&lt;span style=&quot;background-color: initial;&quot;&gt;Eigen::Matrix&amp;lt;double, kStateSize, kStateSize&amp;gt;&lt;/span&gt;" style="text;html=1;strokeColor=none;fillColor=none;align=left;verticalAlign=top;spacingLeft=4;spacingRight=4;whiteSpace=wrap;overflow=hidden;rotatable=0;points=[[0,0.5],[1,0.5]];portConstraint=eastwest;" parent="L1IDQ7KOCl5srtxUm-I5-197" vertex="1">
                    <mxGeometry y="390" width="500" height="26" as="geometry"/>
                </mxCell>
                <mxCell id="L1IDQ7KOCl5srtxUm-I5-213" value="+&amp;nbsp;initial_state_covariance_&lt;span style=&quot;background-color: initial;&quot;&gt;:&amp;nbsp;&lt;/span&gt;&lt;span style=&quot;background-color: initial;&quot;&gt;&amp;nbsp;&lt;/span&gt;&lt;span style=&quot;background-color: initial;&quot;&gt;Eigen::Matrix&amp;lt;double, kStateSize, 1&amp;gt;&lt;/span&gt;" style="text;html=1;strokeColor=none;fillColor=none;align=left;verticalAlign=top;spacingLeft=4;spacingRight=4;whiteSpace=wrap;overflow=hidden;rotatable=0;points=[[0,0.5],[1,0.5]];portConstraint=eastwest;" parent="L1IDQ7KOCl5srtxUm-I5-197" vertex="1">
                    <mxGeometry y="416" width="500" height="26" as="geometry"/>
                </mxCell>
                <mxCell id="L1IDQ7KOCl5srtxUm-I5-214" value="+&amp;nbsp;measurement_covariance_&lt;span style=&quot;&quot;&gt;:&amp;nbsp;&lt;/span&gt;&lt;span style=&quot;&quot;&gt;&amp;nbsp;&lt;/span&gt;&lt;span style=&quot;&quot;&gt;Eigen::Matrix&amp;lt;double, kMeasurementSize, 1&amp;gt;&lt;/span&gt;" style="text;html=1;strokeColor=none;fillColor=none;align=left;verticalAlign=top;spacingLeft=4;spacingRight=4;whiteSpace=wrap;overflow=hidden;rotatable=0;points=[[0,0.5],[1,0.5]];portConstraint=eastwest;fontColor=default;labelBackgroundColor=none;" parent="L1IDQ7KOCl5srtxUm-I5-197" vertex="1">
                    <mxGeometry y="442" width="500" height="26" as="geometry"/>
                </mxCell>
                <mxCell id="L1IDQ7KOCl5srtxUm-I5-215" value="+&amp;nbsp;drag_coefficients_matrix_&lt;span style=&quot;background-color: initial;&quot;&gt;:&amp;nbsp;&lt;/span&gt;&lt;span style=&quot;background-color: initial;&quot;&gt;&amp;nbsp;&lt;/span&gt;&lt;span style=&quot;background-color: initial;&quot;&gt;Eigen::&lt;/span&gt;Matrix3d" style="text;html=1;strokeColor=none;fillColor=none;align=left;verticalAlign=top;spacingLeft=4;spacingRight=4;whiteSpace=wrap;overflow=hidden;rotatable=0;points=[[0,0.5],[1,0.5]];portConstraint=eastwest;" parent="L1IDQ7KOCl5srtxUm-I5-197" vertex="1">
                    <mxGeometry y="468" width="500" height="26" as="geometry"/>
                </mxCell>
                <mxCell id="L1IDQ7KOCl5srtxUm-I5-216" value="+&amp;nbsp;F_&lt;span style=&quot;background-color: initial;&quot;&gt;:&amp;nbsp;&lt;/span&gt;&lt;span style=&quot;background-color: initial;&quot;&gt;&amp;nbsp;&lt;/span&gt;Eigen::SparseMatrix&amp;lt;double&amp;gt; // System dynamics matrix" style="text;html=1;strokeColor=none;fillColor=none;align=left;verticalAlign=top;spacingLeft=4;spacingRight=4;whiteSpace=wrap;overflow=hidden;rotatable=0;points=[[0,0.5],[1,0.5]];portConstraint=eastwest;" parent="L1IDQ7KOCl5srtxUm-I5-197" vertex="1">
                    <mxGeometry y="494" width="500" height="26" as="geometry"/>
                </mxCell>
                <mxCell id="L1IDQ7KOCl5srtxUm-I5-217" value="+&amp;nbsp;K_&lt;span style=&quot;background-color: initial;&quot;&gt;:&amp;nbsp;&lt;/span&gt;&lt;span style=&quot;background-color: initial;&quot;&gt;&amp;nbsp;&lt;/span&gt;&lt;span style=&quot;background-color: initial;&quot;&gt;Eigen::Matrix&amp;lt;double, kStateSize, kMeasurementSize&amp;gt;&amp;gt; // Kalman gain matrix&lt;/span&gt;" style="text;html=1;strokeColor=none;fillColor=none;align=left;verticalAlign=top;spacingLeft=4;spacingRight=4;whiteSpace=wrap;overflow=hidden;rotatable=0;points=[[0,0.5],[1,0.5]];portConstraint=eastwest;" parent="L1IDQ7KOCl5srtxUm-I5-197" vertex="1">
                    <mxGeometry y="520" width="500" height="26" as="geometry"/>
                </mxCell>
                <mxCell id="L1IDQ7KOCl5srtxUm-I5-218" value="+&amp;nbsp;H_&lt;span style=&quot;background-color: initial;&quot;&gt;:&amp;nbsp;&lt;/span&gt;&lt;span style=&quot;background-color: initial;&quot;&gt;&amp;nbsp;&lt;/span&gt;&lt;span style=&quot;background-color: initial;&quot;&gt;Eigen::SparseMatrix&amp;lt;double&amp;gt; // Measurement matrix&lt;/span&gt;" style="text;html=1;strokeColor=none;fillColor=none;align=left;verticalAlign=top;spacingLeft=4;spacingRight=4;whiteSpace=wrap;overflow=hidden;rotatable=0;points=[[0,0.5],[1,0.5]];portConstraint=eastwest;" parent="L1IDQ7KOCl5srtxUm-I5-197" vertex="1">
                    <mxGeometry y="546" width="500" height="26" as="geometry"/>
                </mxCell>
                <mxCell id="L1IDQ7KOCl5srtxUm-I5-219" value="+&amp;nbsp;external_forces_limit_&lt;span style=&quot;background-color: initial;&quot;&gt;:&amp;nbsp;&lt;/span&gt;&lt;span style=&quot;background-color: initial;&quot;&gt;&amp;nbsp;&lt;/span&gt;&lt;span style=&quot;background-color: initial;&quot;&gt;Eigen::Vector3d&lt;/span&gt;" style="text;html=1;strokeColor=none;fillColor=none;align=left;verticalAlign=top;spacingLeft=4;spacingRight=4;whiteSpace=wrap;overflow=hidden;rotatable=0;points=[[0,0.5],[1,0.5]];portConstraint=eastwest;" parent="L1IDQ7KOCl5srtxUm-I5-197" vertex="1">
                    <mxGeometry y="572" width="500" height="26" as="geometry"/>
                </mxCell>
                <mxCell id="L1IDQ7KOCl5srtxUm-I5-220" value="+&amp;nbsp;external_moments_limit_&lt;span style=&quot;background-color: initial;&quot;&gt;:&amp;nbsp;&lt;/span&gt;&lt;span style=&quot;background-color: initial;&quot;&gt;&amp;nbsp;&lt;/span&gt;&lt;span style=&quot;background-color: initial;&quot;&gt;Eigen::Vector3d&lt;/span&gt;" style="text;html=1;strokeColor=none;fillColor=none;align=left;verticalAlign=top;spacingLeft=4;spacingRight=4;whiteSpace=wrap;overflow=hidden;rotatable=0;points=[[0,0.5],[1,0.5]];portConstraint=eastwest;" parent="L1IDQ7KOCl5srtxUm-I5-197" vertex="1">
                    <mxGeometry y="598" width="500" height="26" as="geometry"/>
                </mxCell>
                <mxCell id="L1IDQ7KOCl5srtxUm-I5-221" value="+&amp;nbsp;omega_limit_&lt;span style=&quot;background-color: initial;&quot;&gt;:&amp;nbsp;&lt;/span&gt;&lt;span style=&quot;background-color: initial;&quot;&gt;&amp;nbsp;&lt;/span&gt;&lt;span style=&quot;background-color: initial;&quot;&gt;Eigen::Vector3d&lt;/span&gt;" style="text;html=1;strokeColor=none;fillColor=none;align=left;verticalAlign=top;spacingLeft=4;spacingRight=4;whiteSpace=wrap;overflow=hidden;rotatable=0;points=[[0,0.5],[1,0.5]];portConstraint=eastwest;" parent="L1IDQ7KOCl5srtxUm-I5-197" vertex="1">
                    <mxGeometry y="624" width="500" height="26" as="geometry"/>
                </mxCell>
                <mxCell id="L1IDQ7KOCl5srtxUm-I5-222" value="// Parameters" style="text;html=1;strokeColor=#82b366;fillColor=#d5e8d4;align=left;verticalAlign=top;spacingLeft=4;spacingRight=4;whiteSpace=wrap;overflow=hidden;rotatable=0;points=[[0,0.5],[1,0.5]];portConstraint=eastwest;" parent="L1IDQ7KOCl5srtxUm-I5-197" vertex="1">
                    <mxGeometry y="650" width="500" height="26" as="geometry"/>
                </mxCell>
                <mxCell id="L1IDQ7KOCl5srtxUm-I5-223" value="+&amp;nbsp;roll_damping_&lt;span style=&quot;background-color: initial;&quot;&gt;:&amp;nbsp;&lt;/span&gt;&lt;span style=&quot;background-color: initial;&quot;&gt;&amp;nbsp;&lt;/span&gt;&lt;span style=&quot;background-color: initial;&quot;&gt;double&lt;/span&gt;" style="text;html=1;strokeColor=none;fillColor=none;align=left;verticalAlign=top;spacingLeft=4;spacingRight=4;whiteSpace=wrap;overflow=hidden;rotatable=0;points=[[0,0.5],[1,0.5]];portConstraint=eastwest;" parent="L1IDQ7KOCl5srtxUm-I5-197" vertex="1">
                    <mxGeometry y="676" width="500" height="26" as="geometry"/>
                </mxCell>
                <mxCell id="L1IDQ7KOCl5srtxUm-I5-224" value="+&amp;nbsp;roll_omega_&lt;span style=&quot;background-color: initial;&quot;&gt;:&amp;nbsp;&lt;/span&gt;&lt;span style=&quot;background-color: initial;&quot;&gt;&amp;nbsp;&lt;/span&gt;&lt;span style=&quot;background-color: initial;&quot;&gt;double&lt;/span&gt;" style="text;html=1;strokeColor=none;fillColor=none;align=left;verticalAlign=top;spacingLeft=4;spacingRight=4;whiteSpace=wrap;overflow=hidden;rotatable=0;points=[[0,0.5],[1,0.5]];portConstraint=eastwest;" parent="L1IDQ7KOCl5srtxUm-I5-197" vertex="1">
                    <mxGeometry y="702" width="500" height="26" as="geometry"/>
                </mxCell>
                <mxCell id="L1IDQ7KOCl5srtxUm-I5-225" value="+&amp;nbsp;roll_gain_&lt;span style=&quot;background-color: initial;&quot;&gt;:&amp;nbsp;&lt;/span&gt;&lt;span style=&quot;background-color: initial;&quot;&gt;&amp;nbsp;&lt;/span&gt;&lt;span style=&quot;background-color: initial;&quot;&gt;double&lt;/span&gt;" style="text;html=1;strokeColor=none;fillColor=none;align=left;verticalAlign=top;spacingLeft=4;spacingRight=4;whiteSpace=wrap;overflow=hidden;rotatable=0;points=[[0,0.5],[1,0.5]];portConstraint=eastwest;" parent="L1IDQ7KOCl5srtxUm-I5-197" vertex="1">
                    <mxGeometry y="728" width="500" height="26" as="geometry"/>
                </mxCell>
                <mxCell id="L1IDQ7KOCl5srtxUm-I5-226" value="+&amp;nbsp;pitch_damping_&lt;span style=&quot;background-color: initial;&quot;&gt;:&amp;nbsp;&lt;/span&gt;&lt;span style=&quot;background-color: initial;&quot;&gt;&amp;nbsp;&lt;/span&gt;&lt;span style=&quot;background-color: initial;&quot;&gt;double&lt;/span&gt;" style="text;html=1;strokeColor=none;fillColor=none;align=left;verticalAlign=top;spacingLeft=4;spacingRight=4;whiteSpace=wrap;overflow=hidden;rotatable=0;points=[[0,0.5],[1,0.5]];portConstraint=eastwest;" parent="L1IDQ7KOCl5srtxUm-I5-197" vertex="1">
                    <mxGeometry y="754" width="500" height="26" as="geometry"/>
                </mxCell>
                <mxCell id="L1IDQ7KOCl5srtxUm-I5-227" value="+&amp;nbsp;pitch_omega_&lt;span style=&quot;background-color: initial;&quot;&gt;:&amp;nbsp;&lt;/span&gt;&lt;span style=&quot;background-color: initial;&quot;&gt;&amp;nbsp;&lt;/span&gt;&lt;span style=&quot;background-color: initial;&quot;&gt;double&lt;/span&gt;" style="text;html=1;strokeColor=none;fillColor=none;align=left;verticalAlign=top;spacingLeft=4;spacingRight=4;whiteSpace=wrap;overflow=hidden;rotatable=0;points=[[0,0.5],[1,0.5]];portConstraint=eastwest;" parent="L1IDQ7KOCl5srtxUm-I5-197" vertex="1">
                    <mxGeometry y="780" width="500" height="26" as="geometry"/>
                </mxCell>
                <mxCell id="L1IDQ7KOCl5srtxUm-I5-228" value="+&amp;nbsp;pitch_gain_&lt;span style=&quot;background-color: initial;&quot;&gt;:&amp;nbsp;&lt;/span&gt;&lt;span style=&quot;background-color: initial;&quot;&gt;&amp;nbsp;&lt;/span&gt;&lt;span style=&quot;background-color: initial;&quot;&gt;double&lt;/span&gt;" style="text;html=1;strokeColor=none;fillColor=none;align=left;verticalAlign=top;spacingLeft=4;spacingRight=4;whiteSpace=wrap;overflow=hidden;rotatable=0;points=[[0,0.5],[1,0.5]];portConstraint=eastwest;" parent="L1IDQ7KOCl5srtxUm-I5-197" vertex="1">
                    <mxGeometry y="806" width="500" height="26" as="geometry"/>
                </mxCell>
                <mxCell id="L1IDQ7KOCl5srtxUm-I5-229" value="+&amp;nbsp;yaw_damping_&lt;span style=&quot;background-color: initial;&quot;&gt;:&amp;nbsp;&lt;/span&gt;&lt;span style=&quot;background-color: initial;&quot;&gt;&amp;nbsp;&lt;/span&gt;&lt;span style=&quot;background-color: initial;&quot;&gt;double&lt;/span&gt;" style="text;html=1;strokeColor=none;fillColor=none;align=left;verticalAlign=top;spacingLeft=4;spacingRight=4;whiteSpace=wrap;overflow=hidden;rotatable=0;points=[[0,0.5],[1,0.5]];portConstraint=eastwest;" parent="L1IDQ7KOCl5srtxUm-I5-197" vertex="1">
                    <mxGeometry y="832" width="500" height="26" as="geometry"/>
                </mxCell>
                <mxCell id="L1IDQ7KOCl5srtxUm-I5-230" value="+&amp;nbsp;yaw_omega_&lt;span style=&quot;background-color: initial;&quot;&gt;:&amp;nbsp;&lt;/span&gt;&lt;span style=&quot;background-color: initial;&quot;&gt;&amp;nbsp;&lt;/span&gt;&lt;span style=&quot;background-color: initial;&quot;&gt;double&lt;/span&gt;" style="text;html=1;strokeColor=none;fillColor=none;align=left;verticalAlign=top;spacingLeft=4;spacingRight=4;whiteSpace=wrap;overflow=hidden;rotatable=0;points=[[0,0.5],[1,0.5]];portConstraint=eastwest;" parent="L1IDQ7KOCl5srtxUm-I5-197" vertex="1">
                    <mxGeometry y="858" width="500" height="26" as="geometry"/>
                </mxCell>
                <mxCell id="L1IDQ7KOCl5srtxUm-I5-231" value="+&amp;nbsp;yaw_gain_&lt;span style=&quot;background-color: initial;&quot;&gt;:&amp;nbsp;&lt;/span&gt;&lt;span style=&quot;background-color: initial;&quot;&gt;&amp;nbsp;&lt;/span&gt;&lt;span style=&quot;background-color: initial;&quot;&gt;double&lt;/span&gt;" style="text;html=1;strokeColor=none;fillColor=none;align=left;verticalAlign=top;spacingLeft=4;spacingRight=4;whiteSpace=wrap;overflow=hidden;rotatable=0;points=[[0,0.5],[1,0.5]];portConstraint=eastwest;" parent="L1IDQ7KOCl5srtxUm-I5-197" vertex="1">
                    <mxGeometry y="884" width="500" height="26" as="geometry"/>
                </mxCell>
                <mxCell id="L1IDQ7KOCl5srtxUm-I5-232" value="+&amp;nbsp;sampling_time_&lt;span style=&quot;background-color: initial;&quot;&gt;:&amp;nbsp;&lt;/span&gt;&lt;span style=&quot;background-color: initial;&quot;&gt;&amp;nbsp;&lt;/span&gt;&lt;span style=&quot;background-color: initial;&quot;&gt;double&lt;/span&gt;" style="text;html=1;strokeColor=none;fillColor=none;align=left;verticalAlign=top;spacingLeft=4;spacingRight=4;whiteSpace=wrap;overflow=hidden;rotatable=0;points=[[0,0.5],[1,0.5]];portConstraint=eastwest;" parent="L1IDQ7KOCl5srtxUm-I5-197" vertex="1">
                    <mxGeometry y="910" width="500" height="26" as="geometry"/>
                </mxCell>
                <mxCell id="L1IDQ7KOCl5srtxUm-I5-233" value="+&amp;nbsp;service_&lt;span style=&quot;background-color: initial;&quot;&gt;:&amp;nbsp;&lt;/span&gt;&lt;span style=&quot;background-color: initial;&quot;&gt;&amp;nbsp;&lt;/span&gt;ros::ServiceServer" style="text;html=1;strokeColor=none;fillColor=none;align=left;verticalAlign=top;spacingLeft=4;spacingRight=4;whiteSpace=wrap;overflow=hidden;rotatable=0;points=[[0,0.5],[1,0.5]];portConstraint=eastwest;" parent="L1IDQ7KOCl5srtxUm-I5-197" vertex="1">
                    <mxGeometry y="936" width="500" height="26" as="geometry"/>
                </mxCell>
                <mxCell id="L1IDQ7KOCl5srtxUm-I5-234" value="+&amp;nbsp;observer_state_pub_&lt;span style=&quot;background-color: initial;&quot;&gt;:&amp;nbsp;&lt;/span&gt;&lt;span style=&quot;background-color: initial;&quot;&gt;&amp;nbsp;&lt;/span&gt;&lt;span style=&quot;background-color: initial;&quot;&gt;ros::&lt;/span&gt;Publisher" style="text;html=1;strokeColor=none;fillColor=none;align=left;verticalAlign=top;spacingLeft=4;spacingRight=4;whiteSpace=wrap;overflow=hidden;rotatable=0;points=[[0,0.5],[1,0.5]];portConstraint=eastwest;" parent="L1IDQ7KOCl5srtxUm-I5-197" vertex="1">
                    <mxGeometry y="962" width="500" height="26" as="geometry"/>
                </mxCell>
                <mxCell id="L1IDQ7KOCl5srtxUm-I5-235" value="+&amp;nbsp;is_calibrating_&lt;span style=&quot;background-color: initial;&quot;&gt;:&amp;nbsp;&lt;/span&gt;&lt;span style=&quot;background-color: initial;&quot;&gt;&amp;nbsp;&lt;/span&gt;&lt;span style=&quot;background-color: initial;&quot;&gt;bool&lt;/span&gt;" style="text;html=1;strokeColor=none;fillColor=none;align=left;verticalAlign=top;spacingLeft=4;spacingRight=4;whiteSpace=wrap;overflow=hidden;rotatable=0;points=[[0,0.5],[1,0.5]];portConstraint=eastwest;" parent="L1IDQ7KOCl5srtxUm-I5-197" vertex="1">
                    <mxGeometry y="988" width="500" height="26" as="geometry"/>
                </mxCell>
                <mxCell id="L1IDQ7KOCl5srtxUm-I5-236" value="+&amp;nbsp;start_calibration_time_&lt;span style=&quot;background-color: initial;&quot;&gt;:&amp;nbsp;&lt;/span&gt;&lt;span style=&quot;background-color: initial;&quot;&gt;&amp;nbsp;&lt;/span&gt;&lt;span style=&quot;background-color: initial;&quot;&gt;ros::&lt;/span&gt;Time" style="text;html=1;strokeColor=none;fillColor=none;align=left;verticalAlign=top;spacingLeft=4;spacingRight=4;whiteSpace=wrap;overflow=hidden;rotatable=0;points=[[0,0.5],[1,0.5]];portConstraint=eastwest;" parent="L1IDQ7KOCl5srtxUm-I5-197" vertex="1">
                    <mxGeometry y="1014" width="500" height="26" as="geometry"/>
                </mxCell>
                <mxCell id="L1IDQ7KOCl5srtxUm-I5-237" value="+&amp;nbsp;calibration_duration_&lt;span style=&quot;background-color: initial;&quot;&gt;:&amp;nbsp;&lt;/span&gt;&lt;span style=&quot;background-color: initial;&quot;&gt;&amp;nbsp;&lt;/span&gt;&lt;span style=&quot;background-color: initial;&quot;&gt;ros::&lt;/span&gt;Duration" style="text;html=1;strokeColor=none;fillColor=none;align=left;verticalAlign=top;spacingLeft=4;spacingRight=4;whiteSpace=wrap;overflow=hidden;rotatable=0;points=[[0,0.5],[1,0.5]];portConstraint=eastwest;" parent="L1IDQ7KOCl5srtxUm-I5-197" vertex="1">
                    <mxGeometry y="1040" width="500" height="26" as="geometry"/>
                </mxCell>
                <mxCell id="L1IDQ7KOCl5srtxUm-I5-238" value="+&amp;nbsp;forces_offset_&lt;span style=&quot;background-color: initial;&quot;&gt;:&amp;nbsp;&lt;/span&gt;&lt;span style=&quot;background-color: initial;&quot;&gt;&amp;nbsp;&lt;/span&gt;Eigen::Vector3d" style="text;html=1;strokeColor=none;fillColor=none;align=left;verticalAlign=top;spacingLeft=4;spacingRight=4;whiteSpace=wrap;overflow=hidden;rotatable=0;points=[[0,0.5],[1,0.5]];portConstraint=eastwest;" parent="L1IDQ7KOCl5srtxUm-I5-197" vertex="1">
                    <mxGeometry y="1066" width="500" height="26" as="geometry"/>
                </mxCell>
                <mxCell id="L1IDQ7KOCl5srtxUm-I5-239" value="+&amp;nbsp;moments_offset_&lt;span style=&quot;background-color: initial;&quot;&gt;:&amp;nbsp;&lt;/span&gt;&lt;span style=&quot;background-color: initial;&quot;&gt;&amp;nbsp;&lt;/span&gt;Eigen::Vector3d" style="text;html=1;strokeColor=none;fillColor=none;align=left;verticalAlign=top;spacingLeft=4;spacingRight=4;whiteSpace=wrap;overflow=hidden;rotatable=0;points=[[0,0.5],[1,0.5]];portConstraint=eastwest;" parent="L1IDQ7KOCl5srtxUm-I5-197" vertex="1">
                    <mxGeometry y="1092" width="500" height="26" as="geometry"/>
                </mxCell>
                <mxCell id="L1IDQ7KOCl5srtxUm-I5-240" value="+&amp;nbsp;calibration_counter_&lt;span style=&quot;background-color: initial;&quot;&gt;:&amp;nbsp;&lt;/span&gt;&lt;span style=&quot;background-color: initial;&quot;&gt;&amp;nbsp;int&lt;/span&gt;" style="text;html=1;strokeColor=none;fillColor=none;align=left;verticalAlign=top;spacingLeft=4;spacingRight=4;whiteSpace=wrap;overflow=hidden;rotatable=0;points=[[0,0.5],[1,0.5]];portConstraint=eastwest;" parent="L1IDQ7KOCl5srtxUm-I5-197" vertex="1">
                    <mxGeometry y="1118" width="500" height="26" as="geometry"/>
                </mxCell>
                <mxCell id="L1IDQ7KOCl5srtxUm-I5-241" value="+&amp;nbsp;startCalibration&lt;span style=&quot;background-color: initial;&quot;&gt;:&amp;nbsp;&lt;/span&gt;&lt;span style=&quot;background-color: initial;&quot;&gt;&amp;nbsp;&lt;/span&gt;&lt;span style=&quot;background-color: initial;&quot;&gt;bool&lt;/span&gt;" style="text;html=1;strokeColor=none;fillColor=none;align=left;verticalAlign=top;spacingLeft=4;spacingRight=4;whiteSpace=wrap;overflow=hidden;rotatable=0;points=[[0,0.5],[1,0.5]];portConstraint=eastwest;" parent="L1IDQ7KOCl5srtxUm-I5-197" vertex="1">
                    <mxGeometry y="1144" width="500" height="26" as="geometry"/>
                </mxCell>
                <mxCell id="L1IDQ7KOCl5srtxUm-I5-242" value="+&amp;nbsp;initialize()&lt;span style=&quot;background-color: initial;&quot;&gt;:&amp;nbsp;&lt;/span&gt;&lt;span style=&quot;background-color: initial;&quot;&gt;&amp;nbsp;&lt;/span&gt;&lt;span style=&quot;background-color: initial;&quot;&gt;void&lt;/span&gt;" style="text;html=1;strokeColor=none;fillColor=none;align=left;verticalAlign=top;spacingLeft=4;spacingRight=4;whiteSpace=wrap;overflow=hidden;rotatable=0;points=[[0,0.5],[1,0.5]];portConstraint=eastwest;" parent="L1IDQ7KOCl5srtxUm-I5-197" vertex="1">
                    <mxGeometry y="1170" width="500" height="26" as="geometry"/>
                </mxCell>
                <mxCell id="L1IDQ7KOCl5srtxUm-I5-243" value="+&amp;nbsp;systemDynamics(double dt)&lt;span style=&quot;background-color: initial;&quot;&gt;:&amp;nbsp;&lt;/span&gt;&lt;span style=&quot;background-color: initial;&quot;&gt;&amp;nbsp;int&lt;/span&gt;" style="text;html=1;strokeColor=none;fillColor=none;align=left;verticalAlign=top;spacingLeft=4;spacingRight=4;whiteSpace=wrap;overflow=hidden;rotatable=0;points=[[0,0.5],[1,0.5]];portConstraint=eastwest;" parent="L1IDQ7KOCl5srtxUm-I5-197" vertex="1">
                    <mxGeometry y="1196" width="500" height="26" as="geometry"/>
                </mxCell>
                <mxCell id="L1IDQ7KOCl5srtxUm-I5-244" value="+&amp;nbsp;startCalibrationCallback(std_srvs::Empty::Request&amp;amp; req, std_srvs::Empty::Response&amp;amp; res)&lt;span style=&quot;background-color: initial;&quot;&gt;:&amp;nbsp;&lt;/span&gt;&lt;span style=&quot;background-color: initial;&quot;&gt;&amp;nbsp;&lt;/span&gt;Eigen::Vector3d" style="text;html=1;strokeColor=none;fillColor=none;align=left;verticalAlign=top;spacingLeft=4;spacingRight=4;whiteSpace=wrap;overflow=hidden;rotatable=0;points=[[0,0.5],[1,0.5]];portConstraint=eastwest;" parent="L1IDQ7KOCl5srtxUm-I5-197" vertex="1">
                    <mxGeometry y="1222" width="500" height="38" as="geometry"/>
                </mxCell>
                <mxCell id="L1IDQ7KOCl5srtxUm-I5-245" value="+&amp;nbsp;dyn_config_server_&lt;span style=&quot;background-color: initial;&quot;&gt;:&amp;nbsp;&lt;/span&gt;&lt;span style=&quot;background-color: initial;&quot;&gt;&amp;nbsp;&lt;/span&gt;&amp;nbsp;dynamic_reconfigure::Server" style="text;html=1;strokeColor=none;fillColor=none;align=left;verticalAlign=top;spacingLeft=4;spacingRight=4;whiteSpace=wrap;overflow=hidden;rotatable=0;points=[[0,0.5],[1,0.5]];portConstraint=eastwest;" parent="L1IDQ7KOCl5srtxUm-I5-197" vertex="1">
                    <mxGeometry y="1260" width="500" height="26" as="geometry"/>
                </mxCell>
                <mxCell id="L1IDQ7KOCl5srtxUm-I5-246" value="+&amp;nbsp;DynConfigCallback(mav_disturbance_observer::KFDisturbanceObserverConfig &amp;amp;config, uint32_t level)&lt;span style=&quot;background-color: initial;&quot;&gt;:&amp;nbsp;&lt;/span&gt;&lt;span style=&quot;background-color: initial;&quot;&gt;&amp;nbsp;void&lt;/span&gt;" style="text;html=1;strokeColor=none;fillColor=none;align=left;verticalAlign=top;spacingLeft=4;spacingRight=4;whiteSpace=wrap;overflow=hidden;rotatable=0;points=[[0,0.5],[1,0.5]];portConstraint=eastwest;" parent="L1IDQ7KOCl5srtxUm-I5-197" vertex="1">
                    <mxGeometry y="1286" width="500" height="34" as="geometry"/>
                </mxCell>
                <mxCell id="L1IDQ7KOCl5srtxUm-I5-247" value="+ loadROSParams(): void" style="text;html=1;strokeColor=none;fillColor=none;align=left;verticalAlign=top;spacingLeft=4;spacingRight=4;whiteSpace=wrap;overflow=hidden;rotatable=0;points=[[0,0.5],[1,0.5]];portConstraint=eastwest;" parent="L1IDQ7KOCl5srtxUm-I5-197" vertex="1">
                    <mxGeometry y="1320" width="500" height="26" as="geometry"/>
                </mxCell>
                <mxCell id="L1IDQ7KOCl5srtxUm-I5-248" value="" style="line;html=1;strokeWidth=1;fillColor=none;align=left;verticalAlign=middle;spacingTop=-1;spacingLeft=3;spacingRight=3;rotatable=0;labelPosition=right;points=[];portConstraint=eastwest;" parent="L1IDQ7KOCl5srtxUm-I5-197" vertex="1">
                    <mxGeometry y="1346" width="500" height="8" as="geometry"/>
                </mxCell>
                <mxCell id="L1IDQ7KOCl5srtxUm-I5-249" value="Public" style="text;html=1;strokeColor=#6c8ebf;fillColor=#dae8fc;align=left;verticalAlign=top;spacingLeft=4;spacingRight=4;whiteSpace=wrap;overflow=hidden;rotatable=0;points=[[0,0.5],[1,0.5]];portConstraint=eastwest;" parent="L1IDQ7KOCl5srtxUm-I5-197" vertex="1">
                    <mxGeometry y="1354" width="500" height="26" as="geometry"/>
                </mxCell>
                <mxCell id="L1IDQ7KOCl5srtxUm-I5-250" value="+&amp;nbsp;LinearModelPredictiveController(const ros::NodeHandle&amp;amp; nh, const ros::NodeHandle&amp;amp; private_nh)" style="text;html=1;strokeColor=none;fillColor=none;align=left;verticalAlign=top;spacingLeft=4;spacingRight=4;whiteSpace=wrap;overflow=hidden;rotatable=0;points=[[0,0.5],[1,0.5]];portConstraint=eastwest;" parent="L1IDQ7KOCl5srtxUm-I5-197" vertex="1">
                    <mxGeometry y="1380" width="500" height="40" as="geometry"/>
                </mxCell>
                <mxCell id="L1IDQ7KOCl5srtxUm-I5-251" value="+ ~LinearModelPredictiveController()" style="text;html=1;strokeColor=none;fillColor=none;align=left;verticalAlign=top;spacingLeft=4;spacingRight=4;whiteSpace=wrap;overflow=hidden;rotatable=0;points=[[0,0.5],[1,0.5]];portConstraint=eastwest;" parent="L1IDQ7KOCl5srtxUm-I5-197" vertex="1">
                    <mxGeometry y="1420" width="500" height="30" as="geometry"/>
                </mxCell>
                <mxCell id="L1IDQ7KOCl5srtxUm-I5-252" value="//Dynamic parameters" style="text;html=1;strokeColor=#82b366;fillColor=#d5e8d4;align=left;verticalAlign=top;spacingLeft=4;spacingRight=4;whiteSpace=wrap;overflow=hidden;rotatable=0;points=[[0,0.5],[1,0.5]];portConstraint=eastwest;" parent="L1IDQ7KOCl5srtxUm-I5-197" vertex="1">
                    <mxGeometry y="1450" width="500" height="26" as="geometry"/>
                </mxCell>
                <mxCell id="L1IDQ7KOCl5srtxUm-I5-253" value="+&amp;nbsp;setPositionPenality(const Eigen::Vector3d&amp;amp; q_position)&lt;span style=&quot;background-color: initial;&quot;&gt;: void&lt;/span&gt;" style="text;html=1;strokeColor=none;fillColor=none;align=left;verticalAlign=top;spacingLeft=4;spacingRight=4;whiteSpace=wrap;overflow=hidden;rotatable=0;points=[[0,0.5],[1,0.5]];portConstraint=eastwest;" parent="L1IDQ7KOCl5srtxUm-I5-197" vertex="1">
                    <mxGeometry y="1476" width="500" height="26" as="geometry"/>
                </mxCell>
                <mxCell id="L1IDQ7KOCl5srtxUm-I5-254" value="+&amp;nbsp;setVelocityPenality(const Eigen::Vector3d&amp;amp; q_velocity)&lt;span style=&quot;background-color: initial;&quot;&gt;: void&lt;/span&gt;" style="text;html=1;strokeColor=none;fillColor=none;align=left;verticalAlign=top;spacingLeft=4;spacingRight=4;whiteSpace=wrap;overflow=hidden;rotatable=0;points=[[0,0.5],[1,0.5]];portConstraint=eastwest;" parent="L1IDQ7KOCl5srtxUm-I5-197" vertex="1">
                    <mxGeometry y="1502" width="500" height="26" as="geometry"/>
                </mxCell>
                <mxCell id="L1IDQ7KOCl5srtxUm-I5-255" value="+ setAttitudePenality(const Eigen::Vector2d&amp;amp; q_attitude): void" style="text;html=1;strokeColor=none;fillColor=none;align=left;verticalAlign=top;spacingLeft=4;spacingRight=4;whiteSpace=wrap;overflow=hidden;rotatable=0;points=[[0,0.5],[1,0.5]];portConstraint=eastwest;" parent="L1IDQ7KOCl5srtxUm-I5-197" vertex="1">
                    <mxGeometry y="1528" width="500" height="26" as="geometry"/>
                </mxCell>
                <mxCell id="L1IDQ7KOCl5srtxUm-I5-256" value="+&amp;nbsp;setCommandPenality(const Eigen::Vector3d&amp;amp; r_command): void" style="text;html=1;strokeColor=none;fillColor=none;align=left;verticalAlign=top;spacingLeft=4;spacingRight=4;whiteSpace=wrap;overflow=hidden;rotatable=0;points=[[0,0.5],[1,0.5]];portConstraint=eastwest;" parent="L1IDQ7KOCl5srtxUm-I5-197" vertex="1">
                    <mxGeometry y="1554" width="500" height="26" as="geometry"/>
                </mxCell>
                <mxCell id="L1IDQ7KOCl5srtxUm-I5-257" value="+ setDeltaCommandPenality(const Eigen::Vector3d&amp;amp; r_delta_command): void" style="text;html=1;strokeColor=none;fillColor=none;align=left;verticalAlign=top;spacingLeft=4;spacingRight=4;whiteSpace=wrap;overflow=hidden;rotatable=0;points=[[0,0.5],[1,0.5]];portConstraint=eastwest;" parent="L1IDQ7KOCl5srtxUm-I5-197" vertex="1">
                    <mxGeometry y="1580" width="500" height="26" as="geometry"/>
                </mxCell>
                <mxCell id="L1IDQ7KOCl5srtxUm-I5-258" value="+&amp;nbsp;setAltitudeIntratorGain(double Ki_altitude)&lt;span style=&quot;background-color: initial;&quot;&gt;: void&lt;/span&gt;" style="text;html=1;strokeColor=none;fillColor=none;align=left;verticalAlign=top;spacingLeft=4;spacingRight=4;whiteSpace=wrap;overflow=hidden;rotatable=0;points=[[0,0.5],[1,0.5]];portConstraint=eastwest;" parent="L1IDQ7KOCl5srtxUm-I5-197" vertex="1">
                    <mxGeometry y="1606" width="500" height="26" as="geometry"/>
                </mxCell>
                <mxCell id="L1IDQ7KOCl5srtxUm-I5-259" value="+ getEstimatedVelocity(): Eigen::Vector3d" style="text;html=1;strokeColor=none;fillColor=none;align=left;verticalAlign=top;spacingLeft=4;spacingRight=4;whiteSpace=wrap;overflow=hidden;rotatable=0;points=[[0,0.5],[1,0.5]];portConstraint=eastwest;" parent="L1IDQ7KOCl5srtxUm-I5-197" vertex="1">
                    <mxGeometry y="1632" width="500" height="26" as="geometry"/>
                </mxCell>
                <mxCell id="L1IDQ7KOCl5srtxUm-I5-260" value="//Feeding" style="text;html=1;strokeColor=#82b366;fillColor=#d5e8d4;align=left;verticalAlign=top;spacingLeft=4;spacingRight=4;whiteSpace=wrap;overflow=hidden;rotatable=0;points=[[0,0.5],[1,0.5]];portConstraint=eastwest;" parent="L1IDQ7KOCl5srtxUm-I5-197" vertex="1">
                    <mxGeometry y="1658" width="500" height="26" as="geometry"/>
                </mxCell>
                <mxCell id="L1IDQ7KOCl5srtxUm-I5-261" value="+&amp;nbsp;feedAttitudeCommand(const Eigen::Vector3d&amp;amp;&amp;nbsp;roll_pitch_yaw_thrust_cmd&lt;span style=&quot;background-color: initial;&quot;&gt;): void&lt;/span&gt;" style="text;html=1;strokeColor=none;fillColor=none;align=left;verticalAlign=top;spacingLeft=4;spacingRight=4;whiteSpace=wrap;overflow=hidden;rotatable=0;points=[[0,0.5],[1,0.5]];portConstraint=eastwest;" parent="L1IDQ7KOCl5srtxUm-I5-197" vertex="1">
                    <mxGeometry y="1684" width="500" height="26" as="geometry"/>
                </mxCell>
                <mxCell id="L1IDQ7KOCl5srtxUm-I5-262" value="+&amp;nbsp;feedPositionMeasurement&lt;span style=&quot;background-color: initial;&quot;&gt;(const Eigen::Vector3d&amp;amp; position): void&lt;/span&gt;" style="text;html=1;strokeColor=none;fillColor=none;align=left;verticalAlign=top;spacingLeft=4;spacingRight=4;whiteSpace=wrap;overflow=hidden;rotatable=0;points=[[0,0.5],[1,0.5]];portConstraint=eastwest;" parent="L1IDQ7KOCl5srtxUm-I5-197" vertex="1">
                    <mxGeometry y="1710" width="500" height="26" as="geometry"/>
                </mxCell>
                <mxCell id="L1IDQ7KOCl5srtxUm-I5-263" value="+&amp;nbsp;feedVelocityMeasurement(const Eigen::Vector3d&amp;amp;&amp;nbsp;velocity&lt;span style=&quot;background-color: initial;&quot;&gt;): void&lt;/span&gt;" style="text;html=1;strokeColor=none;fillColor=none;align=left;verticalAlign=top;spacingLeft=4;spacingRight=4;whiteSpace=wrap;overflow=hidden;rotatable=0;points=[[0,0.5],[1,0.5]];portConstraint=eastwest;" parent="L1IDQ7KOCl5srtxUm-I5-197" vertex="1">
                    <mxGeometry y="1736" width="500" height="26" as="geometry"/>
                </mxCell>
                <mxCell id="L1IDQ7KOCl5srtxUm-I5-264" value="+&amp;nbsp;feedRotationMatrix(const Eigen::Vector3d&amp;amp;&amp;nbsp;rotation_matrix&lt;span style=&quot;background-color: initial;&quot;&gt;): void&lt;/span&gt;" style="text;html=1;strokeColor=none;fillColor=none;align=left;verticalAlign=top;spacingLeft=4;spacingRight=4;whiteSpace=wrap;overflow=hidden;rotatable=0;points=[[0,0.5],[1,0.5]];portConstraint=eastwest;" parent="L1IDQ7KOCl5srtxUm-I5-197" vertex="1">
                    <mxGeometry y="1762" width="500" height="26" as="geometry"/>
                </mxCell>
                <mxCell id="L1IDQ7KOCl5srtxUm-I5-265" value="+&amp;nbsp;updateEstimator&lt;span style=&quot;background-color: initial;&quot;&gt;(): bool&lt;/span&gt;" style="text;html=1;strokeColor=none;fillColor=none;align=left;verticalAlign=top;spacingLeft=4;spacingRight=4;whiteSpace=wrap;overflow=hidden;rotatable=0;points=[[0,0.5],[1,0.5]];portConstraint=eastwest;" parent="L1IDQ7KOCl5srtxUm-I5-197" vertex="1">
                    <mxGeometry y="1788" width="500" height="26" as="geometry"/>
                </mxCell>
                <mxCell id="L1IDQ7KOCl5srtxUm-I5-266" value="+&amp;nbsp;KFDisturbanceObserver&lt;span style=&quot;background-color: initial;&quot;&gt;(): virtual&lt;/span&gt;" style="text;html=1;strokeColor=none;fillColor=none;align=left;verticalAlign=top;spacingLeft=4;spacingRight=4;whiteSpace=wrap;overflow=hidden;rotatable=0;points=[[0,0.5],[1,0.5]];portConstraint=eastwest;" parent="L1IDQ7KOCl5srtxUm-I5-197" vertex="1">
                    <mxGeometry y="1814" width="500" height="26" as="geometry"/>
                </mxCell>
            </root>
        </mxGraphModel>
    </diagram>
</mxfile>